<svg width="504" height="1024" viewBox="0 0 504 1024" fill="none" xmlns="http://www.w3.org/2000/svg">
<g clip-path="url(#clip0_355_10)">
<path fill-rule="evenodd" clip-rule="evenodd" d="M0.00012207 10.3269L9.15527e-05 0L504 0L504 185.354C504 236.515 493.91 280.565 473.73 317.505C459.172 344.492 439.927 366.983 415.995 384.977L504 414.56V576.132L503.58 576.273V626.812H504L504 1024H434.602L98.9298 780.048L98.9298 1023.75H9.15527e-05L9.15527e-05 745.55L9.15527e-05 626.567V615.115L105.82 582.015V408.608L9.15527e-05 375.577L0.00012207 371.647L9.15527e-05 245.142L0.00012207 185.754L9.15527e-05 185.6L0.00012207 10.3269ZM399.63 866.565L399.63 611.216L159.393 691.971L399.63 866.565ZM198.352 553.071V437.492L377.016 493.262V497.185L198.352 553.071ZM103.852 121.363L103.852 180.941C103.852 209.055 108.609 232.837 118.125 252.288C127.805 271.902 143.473 286.695 165.129 296.665C186.949 306.799 215.988 311.866 252.246 311.866C288.504 311.866 317.379 306.799 338.871 296.665C360.527 286.531 376.113 271.575 385.629 251.798C395.309 232.183 400.148 207.993 400.148 179.225L400.148 121.363L103.852 121.363Z" fill="white"/>
</g>
<defs>
<clipPath id="clip0_355_10">
<rect width="504" height="1024" fill="white"/>
</clipPath>
</defs>
</svg>
