<svg width="404" height="218" viewBox="0 0 404 218" fill="none" xmlns="http://www.w3.org/2000/svg">
<path fill-rule="evenodd" clip-rule="evenodd" d="M4.06998 198.19L96.6075 198.19L146.462 198.19L148.01 198.19L161.028 156.578H229.365L242.41 198.19H246.923H293.813H403.451V159.287H307.409L403.547 27.2898V8.78716e-06H247.02V0.165184H227.103L227.047 8.78716e-06H163.373L151.715 34.6063C144.624 25.1955 135.761 17.6278 125.125 11.903C110.568 3.96767 93.208 0 73.0462 0H0V198.19L4.06998 198.19ZM240.873 41.0419L272.698 135.512L341.504 41.0419H240.873ZM217.959 120.191H172.411L194.389 49.9346H195.935L217.959 120.191ZM47.8279 157.352H71.307C82.3863 157.352 91.7587 155.481 99.424 151.739C107.154 147.933 112.983 141.772 116.913 133.256C120.906 124.675 122.903 113.256 122.903 98.9982C122.903 84.7404 120.906 73.3858 116.913 64.9343C112.919 56.4184 107.025 50.2894 99.2308 46.5476C91.501 42.7412 81.9676 40.838 70.6307 40.838H47.8279V157.352Z" fill="url(#paint0_linear_650_20)"/>
<path d="M1.43787 214.679C1.05648 214.679 0.761774 214.574 0.553744 214.362C0.345714 214.142 0.241699 213.839 0.241699 213.452V206.482C0.241699 206.086 0.345714 205.782 0.553744 205.571C0.770441 205.36 1.06948 205.254 1.45087 205.254H4.64933C5.68948 205.254 6.49126 205.527 7.05467 206.073C7.62676 206.61 7.9128 207.353 7.9128 208.304C7.9128 209.254 7.62676 210.002 7.05467 210.548C6.49126 211.084 5.68948 211.353 4.64933 211.353H2.63404V213.452C2.63404 213.839 2.53436 214.142 2.335 214.362C2.13564 214.574 1.83659 214.679 1.43787 214.679ZM2.63404 209.492H4.23327C4.684 209.492 5.03072 209.395 5.27342 209.201C5.51612 208.999 5.63747 208.7 5.63747 208.304C5.63747 207.899 5.51612 207.6 5.27342 207.406C5.03072 207.212 4.684 207.116 4.23327 207.116H2.63404V209.492Z" fill="url(#paint1_linear_650_20)"/>
<path d="M10.2373 214.56C9.8559 214.56 9.55685 214.455 9.34016 214.244C9.13213 214.024 9.02811 213.72 9.02811 213.333V206.469C9.02811 206.073 9.13213 205.769 9.34016 205.558C9.54819 205.347 9.84289 205.241 10.2243 205.241C10.6143 205.241 10.909 205.347 11.1084 205.558C11.3164 205.769 11.4205 206.073 11.4205 206.469V212.541H14.5929C14.9223 212.541 15.1737 212.629 15.347 212.805C15.529 212.972 15.6201 213.218 15.6201 213.544C15.6201 213.87 15.529 214.12 15.347 214.296C15.1737 214.472 14.9223 214.56 14.5929 214.56H10.2373Z" fill="url(#paint2_linear_650_20)"/>
<path d="M16.9485 214.679C16.6798 214.679 16.4544 214.618 16.2724 214.494C16.0904 214.362 15.9777 214.186 15.9343 213.966C15.891 213.738 15.93 213.482 16.0513 213.201L19.2888 206.126C19.4448 205.782 19.6355 205.532 19.8609 205.373C20.0949 205.215 20.3593 205.136 20.654 205.136C20.9487 205.136 21.2044 205.215 21.4211 205.373C21.6465 205.532 21.8415 205.782 22.0062 206.126L25.2437 213.201C25.3824 213.482 25.43 213.738 25.3867 213.966C25.352 214.195 25.2437 214.371 25.0616 214.494C24.8883 214.618 24.6716 214.679 24.4115 214.679C24.0648 214.679 23.7961 214.6 23.6054 214.442C23.4234 214.283 23.2587 214.028 23.1114 213.676L22.4093 212L23.3194 212.673H17.9626L18.8858 212L18.1837 213.676C18.0276 214.028 17.8673 214.283 17.7026 214.442C17.5379 214.6 17.2865 214.679 16.9485 214.679ZM20.628 207.789L19.1198 211.445L18.7557 210.812H22.5393L22.1752 211.445L20.654 207.789H20.628Z" fill="url(#paint3_linear_650_20)"/>
<path d="M28.7619 214.679C28.3805 214.679 28.0858 214.574 27.8778 214.362C27.6697 214.142 27.5657 213.839 27.5657 213.452V207.234H25.5244C25.2037 207.234 24.9567 207.151 24.7833 206.984C24.6186 206.808 24.5363 206.561 24.5363 206.244C24.5363 205.919 24.6186 205.672 24.7833 205.505C24.9567 205.338 25.2037 205.254 25.5244 205.254H31.9993C32.3201 205.254 32.5628 205.338 32.7275 205.505C32.9008 205.672 32.9875 205.919 32.9875 206.244C32.9875 206.561 32.9008 206.808 32.7275 206.984C32.5628 207.151 32.3201 207.234 31.9993 207.234H29.9581V213.452C29.9581 213.839 29.8584 214.142 29.659 214.362C29.4597 214.574 29.1606 214.679 28.7619 214.679Z" fill="url(#paint4_linear_650_20)"/>
<path d="M33.1754 214.679C32.9067 214.679 32.6813 214.618 32.4993 214.494C32.3173 214.362 32.2046 214.186 32.1613 213.966C32.1179 213.738 32.1569 213.482 32.2783 213.201L35.5157 206.126C35.6718 205.782 35.8625 205.532 36.0878 205.373C36.3219 205.215 36.5862 205.136 36.8809 205.136C37.1756 205.136 37.4313 205.215 37.648 205.373C37.8734 205.532 38.0684 205.782 38.2331 206.126L41.4706 213.201C41.6093 213.482 41.6569 213.738 41.6136 213.966C41.5789 214.195 41.4706 214.371 41.2886 214.494C41.1152 214.618 40.8985 214.679 40.6385 214.679C40.2918 214.679 40.0231 214.6 39.8324 214.442C39.6503 214.283 39.4856 214.028 39.3383 213.676L38.6362 212L39.5463 212.673H34.1895L35.1127 212L34.4106 213.676C34.2546 214.028 34.0942 214.283 33.9295 214.442C33.7648 214.6 33.5135 214.679 33.1754 214.679ZM36.8549 207.789L35.3467 211.445L34.9827 210.812H38.7662L38.4022 211.445L36.8809 207.789H36.8549Z" fill="url(#paint5_linear_650_20)"/>
<path d="M43.872 214.679C43.4906 214.679 43.1915 214.574 42.9748 214.362C42.7668 214.142 42.6628 213.83 42.6628 213.425V206.508C42.6628 206.104 42.7668 205.796 42.9748 205.584C43.1915 205.364 43.5036 205.254 43.911 205.254H48.2406C48.5526 205.254 48.7867 205.334 48.9427 205.492C49.0987 205.65 49.1767 205.879 49.1767 206.178C49.1767 206.486 49.0987 206.724 48.9427 206.891C48.7867 207.05 48.5526 207.129 48.2406 207.129H45.0551V209.003H47.9546C48.2579 209.003 48.4876 209.082 48.6437 209.241C48.8083 209.399 48.8907 209.628 48.8907 209.927C48.8907 210.235 48.8083 210.468 48.6437 210.627C48.4876 210.785 48.2579 210.864 47.9546 210.864H45.0551V213.425C45.0551 214.261 44.6608 214.679 43.872 214.679Z" fill="url(#paint6_linear_650_20)"/>
<path d="M54.5113 214.706C53.5838 214.706 52.769 214.508 52.0669 214.112C51.3648 213.707 50.8187 213.144 50.4287 212.422C50.0473 211.7 49.8566 210.86 49.8566 209.901C49.8566 209.179 49.9649 208.524 50.1816 207.934C50.407 207.344 50.7234 206.838 51.1308 206.416C51.5468 205.994 52.0409 205.672 52.613 205.452C53.1851 205.224 53.8178 205.109 54.5113 205.109C55.4387 205.109 56.2492 205.307 56.9426 205.703C57.6447 206.099 58.1908 206.658 58.5808 207.38C58.9709 208.092 59.1659 208.933 59.1659 209.901C59.1659 210.622 59.0532 211.278 58.8279 211.868C58.6112 212.457 58.2948 212.968 57.8787 213.399C57.4713 213.821 56.9816 214.147 56.4095 214.376C55.8374 214.596 55.2047 214.706 54.5113 214.706ZM54.5113 212.673C54.9706 212.673 55.3607 212.563 55.6814 212.343C56.0021 212.123 56.2492 211.806 56.4225 211.392C56.5959 210.979 56.6826 210.482 56.6826 209.901C56.6826 209.03 56.4919 208.352 56.1105 207.868C55.7291 207.384 55.196 207.142 54.5113 207.142C54.0605 207.142 53.6705 207.252 53.3411 207.472C53.0204 207.683 52.7733 207.996 52.6 208.409C52.4266 208.814 52.3399 209.311 52.3399 209.901C52.3399 210.772 52.5306 211.454 52.912 211.947C53.2934 212.431 53.8265 212.673 54.5113 212.673Z" fill="url(#paint7_linear_650_20)"/>
<path d="M61.7746 214.679C61.3932 214.679 61.0985 214.574 60.8905 214.362C60.6825 214.142 60.5784 213.839 60.5784 213.452V206.482C60.5784 206.086 60.6825 205.782 60.8905 205.571C61.1072 205.36 61.4062 205.254 61.7876 205.254H64.9861C66.0262 205.254 66.828 205.514 67.3914 206.033C67.9635 206.544 68.2495 207.256 68.2495 208.172C68.2495 208.761 68.1195 209.276 67.8595 209.716C67.6081 210.147 67.2397 210.482 66.7543 210.719C66.2776 210.948 65.6882 211.062 64.9861 211.062L65.0901 210.825H65.7142C66.0869 210.825 66.4163 210.917 66.7023 211.102C66.9884 211.278 67.2267 211.551 67.4174 211.92L68.0675 213.108C68.2062 213.364 68.2712 213.614 68.2625 213.861C68.2539 214.098 68.1585 214.296 67.9765 214.455C67.8031 214.604 67.5474 214.679 67.2094 214.679C66.8713 214.679 66.594 214.609 66.3773 214.468C66.1693 214.327 65.9829 214.107 65.8182 213.808L64.635 211.604C64.531 211.41 64.3967 211.278 64.232 211.208C64.0759 211.128 63.8939 211.089 63.6859 211.089H62.9708V213.452C62.9708 213.839 62.8711 214.142 62.6717 214.362C62.4724 214.574 62.1733 214.679 61.7746 214.679ZM62.9708 209.373H64.557C65.0164 209.373 65.3675 209.28 65.6102 209.096C65.8529 208.911 65.9742 208.625 65.9742 208.238C65.9742 207.868 65.8529 207.591 65.6102 207.406C65.3675 207.212 65.0164 207.116 64.557 207.116H62.9708V209.373Z" fill="url(#paint8_linear_650_20)"/>
<path d="M70.8636 214.679C70.5169 214.679 70.2482 214.582 70.0575 214.389C69.8755 214.195 69.7845 213.922 69.7845 213.57V206.244C69.7845 205.884 69.8842 205.611 70.0835 205.426C70.2829 205.232 70.5646 205.136 70.9286 205.136C71.232 205.136 71.4704 205.197 71.6437 205.32C71.8258 205.435 71.9905 205.628 72.1378 205.901L74.9332 210.996H74.4781L77.2605 205.901C77.4166 205.628 77.5813 205.435 77.7546 205.32C77.9366 205.197 78.1793 205.136 78.4827 205.136C78.8294 205.136 79.0938 205.232 79.2758 205.426C79.4665 205.611 79.5619 205.884 79.5619 206.244V213.57C79.5619 213.922 79.4709 214.195 79.2888 214.389C79.1068 214.582 78.8381 214.679 78.4827 214.679C78.136 214.679 77.8673 214.582 77.6766 214.389C77.4946 214.195 77.4036 213.922 77.4036 213.57V209.03H77.6766L75.5833 212.726C75.4619 212.919 75.3319 213.064 75.1932 213.161C75.0632 213.258 74.8855 213.306 74.6602 213.306C74.4435 213.306 74.2658 213.258 74.1271 213.161C73.9884 213.064 73.8627 212.919 73.75 212.726L71.6437 209.016H71.9428V213.57C71.9428 213.922 71.8518 214.195 71.6697 214.389C71.4877 214.582 71.219 214.679 70.8636 214.679Z" fill="url(#paint9_linear_650_20)"/>
<path d="M81.6784 214.679C81.4097 214.679 81.1844 214.618 81.0023 214.494C80.8203 214.362 80.7076 214.186 80.6643 213.966C80.6209 213.738 80.66 213.482 80.7813 213.201L84.0188 206.126C84.1748 205.782 84.3655 205.532 84.5908 205.373C84.8249 205.215 85.0892 205.136 85.384 205.136C85.6787 205.136 85.9344 205.215 86.1511 205.373C86.3764 205.532 86.5715 205.782 86.7362 206.126L89.9736 213.201C90.1123 213.482 90.16 213.738 90.1166 213.966C90.082 214.195 89.9736 214.371 89.7916 214.494C89.6182 214.618 89.4015 214.679 89.1415 214.679C88.7948 214.679 88.5261 214.6 88.3354 214.442C88.1534 214.283 87.9887 214.028 87.8413 213.676L87.1392 212L88.0493 212.673H82.6926L83.6157 212L82.9136 213.676C82.7576 214.028 82.5972 214.283 82.4325 214.442C82.2679 214.6 82.0165 214.679 81.6784 214.679ZM85.358 207.789L83.8497 211.445L83.4857 210.812H87.2692L86.9052 211.445L85.384 207.789H85.358Z" fill="url(#paint10_linear_650_20)"/>
<path d="M96.0823 214.679C95.7009 214.679 95.4062 214.574 95.1981 214.362C94.9901 214.142 94.8861 213.839 94.8861 213.452V206.482C94.8861 206.086 94.9901 205.782 95.1981 205.571C95.4148 205.36 95.7139 205.254 96.0953 205.254H99.2937C100.334 205.254 101.136 205.527 101.699 206.073C102.271 206.61 102.557 207.353 102.557 208.304C102.557 209.254 102.271 210.002 101.699 210.548C101.136 211.084 100.334 211.353 99.2937 211.353H97.2784V213.452C97.2784 213.839 97.1787 214.142 96.9794 214.362C96.78 214.574 96.481 214.679 96.0823 214.679ZM97.2784 209.492H98.8777C99.3284 209.492 99.6751 209.395 99.9178 209.201C100.161 208.999 100.282 208.7 100.282 208.304C100.282 207.899 100.161 207.6 99.9178 207.406C99.6751 207.212 99.3284 207.116 98.8777 207.116H97.2784V209.492Z" fill="url(#paint11_linear_650_20)"/>
<path d="M103.137 214.679C102.868 214.679 102.642 214.618 102.46 214.494C102.278 214.362 102.166 214.186 102.122 213.966C102.079 213.738 102.118 213.482 102.239 213.201L105.477 206.126C105.633 205.782 105.824 205.532 106.049 205.373C106.283 205.215 106.547 205.136 106.842 205.136C107.137 205.136 107.393 205.215 107.609 205.373C107.835 205.532 108.03 205.782 108.194 206.126L111.432 213.201C111.57 213.482 111.618 213.738 111.575 213.966C111.54 214.195 111.432 214.371 111.25 214.494C111.076 214.618 110.86 214.679 110.6 214.679C110.253 214.679 109.984 214.6 109.794 214.442C109.612 214.283 109.447 214.028 109.299 213.676L108.597 212L109.507 212.673H104.151L105.074 212L104.372 213.676C104.216 214.028 104.055 214.283 103.891 214.442C103.726 214.6 103.475 214.679 103.137 214.679ZM106.816 207.789L105.308 211.445L104.944 210.812H108.727L108.363 211.445L106.842 207.789H106.816Z" fill="url(#paint12_linear_650_20)"/>
<path d="M113.82 214.679C113.439 214.679 113.144 214.574 112.936 214.362C112.728 214.142 112.624 213.839 112.624 213.452V206.482C112.624 206.086 112.728 205.782 112.936 205.571C113.153 205.36 113.452 205.254 113.833 205.254H117.032C118.072 205.254 118.874 205.514 119.437 206.033C120.009 206.544 120.295 207.256 120.295 208.172C120.295 208.761 120.165 209.276 119.905 209.716C119.654 210.147 119.285 210.482 118.8 210.719C118.323 210.948 117.734 211.062 117.032 211.062L117.136 210.825H117.76C118.132 210.825 118.462 210.917 118.748 211.102C119.034 211.278 119.272 211.551 119.463 211.92L120.113 213.108C120.252 213.364 120.317 213.614 120.308 213.861C120.299 214.098 120.204 214.296 120.022 214.455C119.849 214.604 119.593 214.679 119.255 214.679C118.917 214.679 118.639 214.609 118.423 214.468C118.215 214.327 118.028 214.107 117.864 213.808L116.681 211.604C116.577 211.41 116.442 211.278 116.277 211.208C116.121 211.128 115.939 211.089 115.731 211.089H115.016V213.452C115.016 213.839 114.917 214.142 114.717 214.362C114.518 214.574 114.219 214.679 113.82 214.679ZM115.016 209.373H116.603C117.062 209.373 117.413 209.28 117.656 209.096C117.898 208.911 118.02 208.625 118.02 208.238C118.02 207.868 117.898 207.591 117.656 207.406C117.413 207.212 117.062 207.116 116.603 207.116H115.016V209.373Z" fill="url(#paint13_linear_650_20)"/>
<path d="M122.055 214.679C121.787 214.679 121.561 214.618 121.379 214.494C121.197 214.362 121.084 214.186 121.041 213.966C120.998 213.738 121.037 213.482 121.158 213.201L124.396 206.126C124.552 205.782 124.742 205.532 124.968 205.373C125.202 205.215 125.466 205.136 125.761 205.136C126.056 205.136 126.311 205.215 126.528 205.373C126.753 205.532 126.948 205.782 127.113 206.126L130.35 213.201C130.489 213.482 130.537 213.738 130.494 213.966C130.459 214.195 130.35 214.371 130.168 214.494C129.995 214.618 129.778 214.679 129.518 214.679C129.172 214.679 128.903 214.6 128.712 214.442C128.53 214.283 128.366 214.028 128.218 213.676L127.516 212L128.426 212.673H123.069L123.993 212L123.29 213.676C123.134 214.028 122.974 214.283 122.809 214.442C122.645 214.6 122.393 214.679 122.055 214.679ZM125.735 207.789L124.227 211.445L123.863 210.812H127.646L127.282 211.445L125.761 207.789H125.735Z" fill="url(#paint14_linear_650_20)"/>
<path d="M135.692 214.679C135.423 214.679 135.198 214.618 135.016 214.494C134.834 214.362 134.721 214.186 134.678 213.966C134.635 213.738 134.674 213.482 134.795 213.201L138.032 206.126C138.188 205.782 138.379 205.532 138.604 205.373C138.838 205.215 139.103 205.136 139.398 205.136C139.692 205.136 139.948 205.215 140.165 205.373C140.39 205.532 140.585 205.782 140.75 206.126L143.987 213.201C144.126 213.482 144.174 213.738 144.13 213.966C144.096 214.195 143.987 214.371 143.805 214.494C143.632 214.618 143.415 214.679 143.155 214.679C142.808 214.679 142.54 214.6 142.349 214.442C142.167 214.283 142.002 214.028 141.855 213.676L141.153 212L142.063 212.673H136.706L137.629 212L136.927 213.676C136.771 214.028 136.611 214.283 136.446 214.442C136.281 214.6 136.03 214.679 135.692 214.679ZM139.372 207.789L137.863 211.445L137.499 210.812H141.283L140.919 211.445L139.398 207.789H139.372Z" fill="url(#paint15_linear_650_20)"/>
<path d="M146.389 214.56C146.007 214.56 145.708 214.455 145.491 214.244C145.283 214.024 145.179 213.72 145.179 213.333V206.469C145.179 206.073 145.283 205.769 145.491 205.558C145.699 205.347 145.994 205.241 146.376 205.241C146.766 205.241 147.06 205.347 147.26 205.558C147.468 205.769 147.572 206.073 147.572 206.469V212.541H150.744C151.074 212.541 151.325 212.629 151.498 212.805C151.68 212.972 151.771 213.218 151.771 213.544C151.771 213.87 151.68 214.12 151.498 214.296C151.325 214.472 151.074 214.56 150.744 214.56H146.389Z" fill="url(#paint16_linear_650_20)"/>
<path d="M153.994 214.679C153.613 214.679 153.314 214.574 153.097 214.362C152.889 214.142 152.785 213.83 152.785 213.425V206.508C152.785 206.104 152.889 205.796 153.097 205.584C153.314 205.364 153.626 205.254 154.033 205.254H158.363C158.675 205.254 158.909 205.334 159.065 205.492C159.221 205.65 159.299 205.879 159.299 206.178C159.299 206.486 159.221 206.724 159.065 206.891C158.909 207.05 158.675 207.129 158.363 207.129H155.177V209.003H158.077C158.38 209.003 158.61 209.082 158.766 209.241C158.931 209.399 159.013 209.628 159.013 209.927C159.013 210.235 158.931 210.468 158.766 210.627C158.61 210.785 158.38 210.864 158.077 210.864H155.177V213.425C155.177 214.261 154.783 214.679 153.994 214.679Z" fill="url(#paint17_linear_650_20)"/>
<path d="M160.07 214.679C159.802 214.679 159.576 214.618 159.394 214.494C159.212 214.362 159.1 214.186 159.056 213.966C159.013 213.738 159.052 213.482 159.173 213.201L162.411 206.126C162.567 205.782 162.758 205.532 162.983 205.373C163.217 205.215 163.481 205.136 163.776 205.136C164.071 205.136 164.326 205.215 164.543 205.373C164.769 205.532 164.964 205.782 165.128 206.126L168.366 213.201C168.504 213.482 168.552 213.738 168.509 213.966C168.474 214.195 168.366 214.371 168.184 214.494C168.01 214.618 167.794 214.679 167.534 214.679C167.187 214.679 166.918 214.6 166.727 214.442C166.545 214.283 166.381 214.028 166.233 213.676L165.531 212L166.441 212.673H161.085L162.008 212L161.306 213.676C161.15 214.028 160.989 214.283 160.825 214.442C160.66 214.6 160.409 214.679 160.07 214.679ZM163.75 207.789L162.242 211.445L161.878 210.812H165.661L165.297 211.445L163.776 207.789H163.75Z" fill="url(#paint18_linear_650_20)"/>
<path d="M170.806 214.56C170.399 214.56 170.087 214.455 169.87 214.244C169.662 214.024 169.558 213.711 169.558 213.306V206.508C169.558 206.104 169.662 205.796 169.87 205.584C170.087 205.364 170.399 205.254 170.806 205.254H173.979C174.637 205.254 175.196 205.356 175.656 205.558C176.124 205.752 176.479 206.029 176.722 206.39C176.965 206.75 177.086 207.173 177.086 207.657C177.086 208.202 176.93 208.669 176.618 209.056C176.315 209.443 175.898 209.707 175.37 209.848V209.637C175.994 209.751 176.475 210.006 176.813 210.402C177.16 210.798 177.333 211.304 177.333 211.92C177.333 212.739 177.043 213.386 176.462 213.861C175.89 214.327 175.105 214.56 174.109 214.56H170.806ZM171.846 212.778H173.783C174.226 212.778 174.546 212.695 174.746 212.528C174.954 212.352 175.058 212.092 175.058 211.749C175.058 211.406 174.954 211.15 174.746 210.983C174.546 210.816 174.226 210.732 173.783 210.732H171.846V212.778ZM171.846 208.95H173.549C173.983 208.95 174.299 208.871 174.499 208.713C174.707 208.554 174.811 208.312 174.811 207.987C174.811 207.661 174.707 207.424 174.499 207.274C174.299 207.116 173.983 207.036 173.549 207.036H171.846V208.95Z" fill="url(#paint19_linear_650_20)"/>
<path d="M179.935 214.56C179.528 214.56 179.216 214.455 178.999 214.244C178.791 214.024 178.687 213.711 178.687 213.306V206.508C178.687 206.104 178.791 205.796 178.999 205.584C179.216 205.364 179.528 205.254 179.935 205.254H184.343C184.655 205.254 184.889 205.334 185.045 205.492C185.201 205.65 185.279 205.879 185.279 206.178C185.279 206.486 185.201 206.724 185.045 206.891C184.889 207.05 184.655 207.129 184.343 207.129H180.975V208.898H184.057C184.36 208.898 184.59 208.977 184.746 209.135C184.911 209.294 184.993 209.527 184.993 209.835C184.993 210.143 184.911 210.376 184.746 210.534C184.59 210.693 184.36 210.772 184.057 210.772H180.975V212.686H184.343C184.655 212.686 184.889 212.77 185.045 212.937C185.201 213.095 185.279 213.324 185.279 213.623C185.279 213.931 185.201 214.164 185.045 214.323C184.889 214.481 184.655 214.56 184.343 214.56H179.935Z" fill="url(#paint20_linear_650_20)"/>
<path d="M190.092 214.679C189.71 214.679 189.415 214.574 189.207 214.362C188.999 214.142 188.895 213.839 188.895 213.452V207.234H186.854C186.533 207.234 186.286 207.151 186.113 206.984C185.948 206.808 185.866 206.561 185.866 206.244C185.866 205.919 185.948 205.672 186.113 205.505C186.286 205.338 186.533 205.254 186.854 205.254H193.329C193.65 205.254 193.892 205.338 194.057 205.505C194.231 205.672 194.317 205.919 194.317 206.244C194.317 206.561 194.231 206.808 194.057 206.984C193.892 207.151 193.65 207.234 193.329 207.234H191.288V213.452C191.288 213.839 191.188 214.142 190.989 214.362C190.789 214.574 190.49 214.679 190.092 214.679Z" fill="url(#paint21_linear_650_20)"/>
<path d="M196.301 214.679C195.919 214.679 195.625 214.574 195.417 214.362C195.209 214.142 195.105 213.834 195.105 213.438V206.376C195.105 205.972 195.209 205.664 195.417 205.452C195.625 205.241 195.919 205.136 196.301 205.136C196.691 205.136 196.985 205.241 197.185 205.452C197.393 205.664 197.497 205.972 197.497 206.376V213.438C197.497 213.834 197.397 214.142 197.198 214.362C196.998 214.574 196.699 214.679 196.301 214.679Z" fill="url(#paint22_linear_650_20)"/>
<path d="M200 214.56C199.697 214.56 199.445 214.494 199.246 214.362C199.055 214.23 198.925 214.054 198.856 213.834C198.787 213.606 198.787 213.359 198.856 213.095C198.925 212.822 199.068 212.55 199.285 212.277L203.771 206.561V207.248H199.818C199.48 207.248 199.224 207.164 199.051 206.997C198.878 206.821 198.791 206.57 198.791 206.244C198.791 205.919 198.878 205.672 199.051 205.505C199.224 205.338 199.48 205.254 199.818 205.254H204.889C205.192 205.254 205.439 205.32 205.63 205.452C205.829 205.584 205.964 205.76 206.033 205.98C206.102 206.2 206.102 206.447 206.033 206.72C205.964 206.992 205.821 207.265 205.604 207.538L201.118 213.254V212.567H205.279C205.608 212.567 205.86 212.651 206.033 212.818C206.215 212.985 206.306 213.232 206.306 213.557C206.306 213.883 206.215 214.134 206.033 214.31C205.86 214.477 205.608 214.56 205.279 214.56H200Z" fill="url(#paint23_linear_650_20)"/>
<path d="M207.583 214.679C207.314 214.679 207.089 214.618 206.907 214.494C206.725 214.362 206.612 214.186 206.569 213.966C206.526 213.738 206.565 213.482 206.686 213.201L209.923 206.126C210.079 205.782 210.27 205.532 210.496 205.373C210.73 205.215 210.994 205.136 211.289 205.136C211.583 205.136 211.839 205.215 212.056 205.373C212.281 205.532 212.476 205.782 212.641 206.126L215.878 213.201C216.017 213.482 216.065 213.738 216.021 213.966C215.987 214.195 215.878 214.371 215.696 214.494C215.523 214.618 215.306 214.679 215.046 214.679C214.7 214.679 214.431 214.6 214.24 214.442C214.058 214.283 213.893 214.028 213.746 213.676L213.044 212L213.954 212.673H208.597L209.52 212L208.818 213.676C208.662 214.028 208.502 214.283 208.337 214.442C208.173 214.6 207.921 214.679 207.583 214.679ZM211.263 207.789L209.754 211.445L209.39 210.812H213.174L212.81 211.445L211.289 207.789H211.263Z" fill="url(#paint24_linear_650_20)"/>
<path d="M221.471 214.706C220.457 214.706 219.585 214.508 218.857 214.112C218.129 213.716 217.57 213.157 217.18 212.435C216.799 211.714 216.608 210.869 216.608 209.901C216.608 209.179 216.716 208.524 216.933 207.934C217.158 207.344 217.479 206.838 217.895 206.416C218.32 205.994 218.831 205.672 219.429 205.452C220.036 205.224 220.717 205.109 221.471 205.109C221.869 205.109 222.281 205.158 222.706 205.254C223.139 205.342 223.521 205.479 223.85 205.664C224.093 205.796 224.262 205.963 224.357 206.165C224.452 206.368 224.483 206.574 224.448 206.786C224.422 206.997 224.348 207.186 224.227 207.353C224.106 207.52 223.95 207.635 223.759 207.696C223.568 207.749 223.36 207.718 223.135 207.604C222.875 207.481 222.615 207.388 222.355 207.327C222.103 207.256 221.839 207.221 221.562 207.221C221.024 207.221 220.574 207.327 220.209 207.538C219.854 207.74 219.585 208.04 219.403 208.436C219.221 208.832 219.13 209.32 219.13 209.901C219.13 210.482 219.221 210.974 219.403 211.379C219.585 211.775 219.854 212.079 220.209 212.29C220.574 212.492 221.024 212.594 221.562 212.594C221.787 212.594 222.03 212.567 222.29 212.514C222.55 212.453 222.806 212.36 223.057 212.237C223.317 212.123 223.547 212.092 223.746 212.145C223.954 212.198 224.119 212.303 224.24 212.462C224.37 212.62 224.452 212.805 224.487 213.016C224.522 213.218 224.491 213.421 224.396 213.623C224.309 213.826 224.153 213.988 223.928 214.112C223.625 214.296 223.248 214.442 222.797 214.547C222.355 214.653 221.913 214.706 221.471 214.706ZM221.159 217.174C220.985 217.174 220.803 217.161 220.613 217.134C220.422 217.117 220.244 217.086 220.079 217.042C219.906 216.989 219.785 216.901 219.715 216.778C219.655 216.664 219.637 216.54 219.663 216.408C219.689 216.276 219.759 216.175 219.871 216.105C219.984 216.034 220.123 216.026 220.287 216.078C220.409 216.114 220.517 216.136 220.613 216.144C220.717 216.162 220.816 216.171 220.912 216.171C221.137 216.171 221.297 216.149 221.393 216.105C221.497 216.061 221.549 215.99 221.549 215.894C221.549 215.814 221.514 215.753 221.445 215.709C221.375 215.674 221.254 215.656 221.081 215.656C221.029 215.656 220.972 215.656 220.912 215.656C220.86 215.665 220.803 215.678 220.743 215.696C220.691 215.704 220.639 215.704 220.587 215.696C220.543 215.687 220.5 215.66 220.457 215.616C220.422 215.572 220.396 215.52 220.378 215.458C220.37 215.405 220.37 215.335 220.378 215.247L220.509 214.296H221.614L221.458 215.313L220.925 215.088C221.02 215.044 221.12 215.014 221.224 214.996C221.336 214.978 221.436 214.97 221.523 214.97C221.93 214.97 222.246 215.058 222.472 215.234C222.697 215.41 222.81 215.656 222.81 215.973C222.81 216.342 222.654 216.633 222.342 216.844C222.038 217.064 221.644 217.174 221.159 217.174Z" fill="url(#paint25_linear_650_20)"/>
<path d="M226.07 214.679C225.801 214.679 225.576 214.618 225.394 214.494C225.212 214.362 225.099 214.186 225.056 213.966C225.013 213.738 225.052 213.482 225.173 213.201L228.411 206.126C228.567 205.782 228.757 205.532 228.983 205.373C229.217 205.215 229.481 205.136 229.776 205.136C230.07 205.136 230.326 205.215 230.543 205.373C230.768 205.532 230.963 205.782 231.128 206.126L234.365 213.201C234.504 213.482 234.552 213.738 234.508 213.966C234.474 214.195 234.365 214.371 234.183 214.494C234.01 214.618 233.793 214.679 233.533 214.679C233.187 214.679 232.918 214.6 232.727 214.442C232.545 214.283 232.38 214.028 232.233 213.676L231.531 212L232.441 212.673H227.084L228.007 212L227.305 213.676C227.149 214.028 226.989 214.283 226.824 214.442C226.66 214.6 226.408 214.679 226.07 214.679ZM229.75 207.789L228.241 211.445L227.877 210.812H231.661L231.297 211.445L229.776 207.789H229.75ZM227.214 204.581C227.032 204.564 226.889 204.502 226.785 204.396C226.69 204.291 226.664 204.141 226.707 203.948C226.82 203.411 227.05 203.002 227.396 202.72C227.743 202.43 228.146 202.284 228.606 202.284C228.857 202.284 229.087 202.32 229.295 202.39C229.503 202.46 229.702 202.544 229.893 202.641C230.083 202.738 230.265 202.821 230.439 202.892C230.612 202.962 230.785 202.997 230.959 202.997C231.132 202.997 231.28 202.962 231.401 202.892C231.522 202.821 231.613 202.724 231.674 202.601C231.761 202.46 231.847 202.35 231.934 202.271C232.029 202.192 232.155 202.161 232.311 202.179C232.493 202.188 232.632 202.249 232.727 202.364C232.831 202.469 232.861 202.619 232.818 202.812C232.705 203.349 232.476 203.758 232.129 204.04C231.791 204.322 231.388 204.462 230.92 204.462C230.677 204.462 230.447 204.427 230.231 204.357C230.023 204.286 229.823 204.207 229.633 204.119C229.442 204.022 229.26 203.939 229.087 203.868C228.913 203.798 228.74 203.763 228.567 203.763C228.402 203.763 228.254 203.798 228.124 203.868C228.003 203.939 227.912 204.031 227.851 204.146C227.765 204.286 227.674 204.396 227.578 204.476C227.492 204.555 227.37 204.59 227.214 204.581Z" fill="url(#paint26_linear_650_20)"/>
<path d="M239.75 214.706C238.822 214.706 238.007 214.508 237.305 214.112C236.603 213.707 236.057 213.144 235.667 212.422C235.286 211.7 235.095 210.86 235.095 209.901C235.095 209.179 235.203 208.524 235.42 207.934C235.645 207.344 235.962 206.838 236.369 206.416C236.785 205.994 237.279 205.672 237.851 205.452C238.423 205.224 239.056 205.109 239.75 205.109C240.677 205.109 241.488 205.307 242.181 205.703C242.883 206.099 243.429 206.658 243.819 207.38C244.209 208.092 244.404 208.933 244.404 209.901C244.404 210.622 244.292 211.278 244.066 211.868C243.85 212.457 243.533 212.968 243.117 213.399C242.71 213.821 242.22 214.147 241.648 214.376C241.076 214.596 240.443 214.706 239.75 214.706ZM239.75 212.673C240.209 212.673 240.599 212.563 240.92 212.343C241.241 212.123 241.488 211.806 241.661 211.392C241.834 210.979 241.921 210.482 241.921 209.901C241.921 209.03 241.73 208.352 241.349 207.868C240.967 207.384 240.434 207.142 239.75 207.142C239.299 207.142 238.909 207.252 238.579 207.472C238.259 207.683 238.012 207.996 237.838 208.409C237.665 208.814 237.578 209.311 237.578 209.901C237.578 210.772 237.769 211.454 238.15 211.947C238.532 212.431 239.065 212.673 239.75 212.673Z" fill="url(#paint27_linear_650_20)"/>
<path d="M254.506 214.56C254.098 214.56 253.786 214.455 253.569 214.244C253.361 214.024 253.257 213.711 253.257 213.306V206.508C253.257 206.104 253.361 205.796 253.569 205.584C253.786 205.364 254.098 205.254 254.506 205.254H257.054C258.649 205.254 259.88 205.659 260.746 206.469C261.622 207.278 262.06 208.422 262.06 209.901C262.06 210.64 261.947 211.3 261.722 211.881C261.496 212.453 261.171 212.941 260.746 213.346C260.322 213.742 259.797 214.046 259.173 214.257C258.558 214.459 257.851 214.56 257.054 214.56H254.506ZM255.65 212.594H256.898C257.357 212.594 257.752 212.536 258.081 212.422C258.419 212.308 258.696 212.14 258.913 211.92C259.139 211.7 259.303 211.423 259.407 211.089C259.52 210.754 259.576 210.358 259.576 209.901C259.576 208.986 259.355 208.312 258.913 207.881C258.471 207.441 257.799 207.221 256.898 207.221H255.65V212.594Z" fill="url(#paint28_linear_650_20)"/>
<path d="M264.727 214.56C264.319 214.56 264.007 214.455 263.791 214.244C263.583 214.024 263.479 213.711 263.479 213.306V206.508C263.479 206.104 263.583 205.796 263.791 205.584C264.007 205.364 264.319 205.254 264.727 205.254H269.134C269.446 205.254 269.68 205.334 269.836 205.492C269.992 205.65 270.07 205.879 270.07 206.178C270.07 206.486 269.992 206.724 269.836 206.891C269.68 207.05 269.446 207.129 269.134 207.129H265.767V208.898H268.848C269.152 208.898 269.381 208.977 269.537 209.135C269.702 209.294 269.784 209.527 269.784 209.835C269.784 210.143 269.702 210.376 269.537 210.534C269.381 210.693 269.152 210.772 268.848 210.772H265.767V212.686H269.134C269.446 212.686 269.68 212.77 269.836 212.937C269.992 213.095 270.07 213.324 270.07 213.623C270.07 213.931 269.992 214.164 269.836 214.323C269.68 214.481 269.446 214.56 269.134 214.56H264.727Z" fill="url(#paint29_linear_650_20)"/>
<path d="M275.237 214.666C274.891 214.684 274.622 214.596 274.431 214.402C274.249 214.2 274.158 213.944 274.158 213.636C274.158 213.399 274.223 213.192 274.353 213.016C274.483 212.84 274.678 212.743 274.938 212.726L275.302 212.699C275.614 212.682 275.844 212.607 275.991 212.475C276.139 212.334 276.212 212.105 276.212 211.788V206.363C276.212 205.958 276.316 205.655 276.524 205.452C276.733 205.241 277.027 205.136 277.409 205.136C277.79 205.136 278.085 205.241 278.293 205.452C278.501 205.655 278.605 205.958 278.605 206.363V211.749C278.605 212.356 278.496 212.871 278.28 213.293C278.063 213.707 277.738 214.028 277.305 214.257C276.88 214.477 276.347 214.604 275.705 214.64L275.237 214.666Z" fill="url(#paint30_linear_650_20)"/>
<path d="M284.672 214.706C283.745 214.706 282.93 214.508 282.228 214.112C281.526 213.707 280.98 213.144 280.589 212.422C280.208 211.7 280.017 210.86 280.017 209.901C280.017 209.179 280.126 208.524 280.342 207.934C280.568 207.344 280.884 206.838 281.292 206.416C281.708 205.994 282.202 205.672 282.774 205.452C283.346 205.224 283.979 205.109 284.672 205.109C285.6 205.109 286.41 205.307 287.103 205.703C287.806 206.099 288.352 206.658 288.742 207.38C289.132 208.092 289.327 208.933 289.327 209.901C289.327 210.622 289.214 211.278 288.989 211.868C288.772 212.457 288.456 212.968 288.04 213.399C287.632 213.821 287.142 214.147 286.57 214.376C285.998 214.596 285.366 214.706 284.672 214.706ZM284.672 212.673C285.131 212.673 285.522 212.563 285.842 212.343C286.163 212.123 286.41 211.806 286.583 211.392C286.757 210.979 286.843 210.482 286.843 209.901C286.843 209.03 286.653 208.352 286.271 207.868C285.89 207.384 285.357 207.142 284.672 207.142C284.221 207.142 283.831 207.252 283.502 207.472C283.181 207.683 282.934 207.996 282.761 208.409C282.587 208.814 282.501 209.311 282.501 209.901C282.501 210.772 282.691 211.454 283.073 211.947C283.454 212.431 283.987 212.673 284.672 212.673Z" fill="url(#paint31_linear_650_20)"/>
<path d="M294.503 214.679C294.173 214.679 293.905 214.609 293.696 214.468C293.497 214.327 293.328 214.103 293.189 213.795L290.043 206.746C289.904 206.438 289.861 206.161 289.913 205.914C289.965 205.668 290.086 205.479 290.277 205.347C290.468 205.206 290.706 205.136 290.992 205.136C291.347 205.136 291.612 205.215 291.785 205.373C291.967 205.532 292.123 205.765 292.253 206.073L294.906 212.303H294.178L296.83 206.06C296.96 205.752 297.116 205.523 297.298 205.373C297.48 205.215 297.736 205.136 298.065 205.136C298.334 205.136 298.559 205.206 298.741 205.347C298.923 205.479 299.036 205.668 299.079 205.914C299.131 206.161 299.088 206.438 298.949 206.746L295.79 213.795C295.66 214.103 295.495 214.327 295.296 214.468C295.096 214.609 294.832 214.679 294.503 214.679Z" fill="url(#paint32_linear_650_20)"/>
<path d="M301.396 214.56C300.989 214.56 300.677 214.455 300.46 214.244C300.252 214.024 300.148 213.711 300.148 213.306V206.508C300.148 206.104 300.252 205.796 300.46 205.584C300.677 205.364 300.989 205.254 301.396 205.254H305.804C306.116 205.254 306.35 205.334 306.506 205.492C306.662 205.65 306.74 205.879 306.74 206.178C306.74 206.486 306.662 206.724 306.506 206.891C306.35 207.05 306.116 207.129 305.804 207.129H302.436V208.898H305.518C305.821 208.898 306.051 208.977 306.207 209.135C306.371 209.294 306.454 209.527 306.454 209.835C306.454 210.143 306.371 210.376 306.207 210.534C306.051 210.693 305.821 210.772 305.518 210.772H302.436V212.686H305.804C306.116 212.686 306.35 212.77 306.506 212.937C306.662 213.095 306.74 213.324 306.74 213.623C306.74 213.931 306.662 214.164 306.506 214.323C306.35 214.481 306.116 214.56 305.804 214.56H301.396Z" fill="url(#paint33_linear_650_20)"/>
<path d="M309.252 214.679C308.888 214.679 308.611 214.582 308.42 214.389C308.23 214.195 308.134 213.909 308.134 213.531V206.337C308.134 205.95 308.23 205.655 308.42 205.452C308.611 205.241 308.862 205.136 309.174 205.136C309.452 205.136 309.669 205.188 309.825 205.294C309.981 205.4 310.154 205.576 310.345 205.822L314.466 211.049H314.102V206.271C314.102 205.901 314.193 205.62 314.375 205.426C314.566 205.232 314.843 205.136 315.207 205.136C315.571 205.136 315.844 205.232 316.026 205.426C316.217 205.62 316.312 205.901 316.312 206.271V213.584C316.312 213.918 316.226 214.186 316.052 214.389C315.879 214.582 315.645 214.679 315.35 214.679C315.056 214.679 314.822 214.626 314.648 214.521C314.484 214.406 314.306 214.23 314.115 213.993L309.994 208.752H310.358V213.531C310.358 213.909 310.262 214.195 310.072 214.389C309.89 214.582 309.617 214.679 309.252 214.679Z" fill="url(#paint34_linear_650_20)"/>
<path d="M321.394 214.706C321.047 214.706 320.683 214.679 320.302 214.626C319.929 214.582 319.574 214.512 319.235 214.415C318.897 214.318 318.594 214.204 318.325 214.072C318.091 213.958 317.927 213.808 317.831 213.623C317.736 213.43 317.701 213.227 317.727 213.016C317.753 212.805 317.827 212.62 317.948 212.462C318.07 212.294 318.23 212.184 318.429 212.132C318.629 212.07 318.854 212.096 319.105 212.211C319.435 212.369 319.808 212.492 320.224 212.58C320.64 212.668 321.03 212.712 321.394 212.712C321.966 212.712 322.365 212.638 322.59 212.488C322.824 212.33 322.941 212.136 322.941 211.907C322.941 211.705 322.859 211.542 322.694 211.419C322.538 211.296 322.256 211.19 321.849 211.102L320.328 210.772C319.496 210.596 318.876 210.288 318.468 209.848C318.061 209.408 317.857 208.84 317.857 208.145C317.857 207.688 317.948 207.274 318.13 206.904C318.321 206.526 318.585 206.205 318.923 205.941C319.27 205.677 319.678 205.474 320.146 205.334C320.622 205.184 321.151 205.109 321.732 205.109C322.183 205.109 322.638 205.162 323.097 205.268C323.565 205.364 323.968 205.514 324.306 205.716C324.506 205.822 324.649 205.967 324.735 206.152C324.822 206.337 324.857 206.53 324.839 206.733C324.822 206.926 324.753 207.098 324.631 207.248C324.519 207.397 324.363 207.498 324.163 207.551C323.972 207.595 323.743 207.56 323.474 207.446C323.223 207.331 322.937 207.248 322.616 207.195C322.304 207.133 322.001 207.102 321.706 207.102C321.385 207.102 321.112 207.142 320.887 207.221C320.661 207.292 320.488 207.397 320.367 207.538C320.254 207.679 320.198 207.842 320.198 208.026C320.198 208.211 320.271 208.37 320.419 208.502C320.575 208.625 320.856 208.73 321.264 208.818L322.772 209.148C323.613 209.333 324.241 209.637 324.657 210.059C325.073 210.482 325.281 211.032 325.281 211.709C325.281 212.167 325.19 212.58 325.008 212.95C324.826 213.32 324.566 213.636 324.228 213.9C323.89 214.156 323.483 214.354 323.006 214.494C322.529 214.635 321.992 214.706 321.394 214.706Z" fill="url(#paint35_linear_650_20)"/>
<path d="M331.425 214.56C331.017 214.56 330.705 214.455 330.489 214.244C330.281 214.024 330.177 213.711 330.177 213.306V206.508C330.177 206.104 330.281 205.796 330.489 205.584C330.705 205.364 331.017 205.254 331.425 205.254H335.832C336.144 205.254 336.378 205.334 336.534 205.492C336.69 205.65 336.768 205.879 336.768 206.178C336.768 206.486 336.69 206.724 336.534 206.891C336.378 207.05 336.144 207.129 335.832 207.129H332.465V208.898H335.546C335.85 208.898 336.079 208.977 336.235 209.135C336.4 209.294 336.482 209.527 336.482 209.835C336.482 210.143 336.4 210.376 336.235 210.534C336.079 210.693 335.85 210.772 335.546 210.772H332.465V212.686H335.832C336.144 212.686 336.378 212.77 336.534 212.937C336.69 213.095 336.768 213.324 336.768 213.623C336.768 213.931 336.69 214.164 336.534 214.323C336.378 214.481 336.144 214.56 335.832 214.56H331.425Z" fill="url(#paint36_linear_650_20)"/>
<path d="M342.312 214.679C342.044 214.679 341.818 214.618 341.636 214.494C341.454 214.362 341.342 214.186 341.298 213.966C341.255 213.738 341.294 213.482 341.415 213.201L344.653 206.126C344.809 205.782 344.999 205.532 345.225 205.373C345.459 205.215 345.723 205.136 346.018 205.136C346.313 205.136 346.568 205.215 346.785 205.373C347.01 205.532 347.205 205.782 347.37 206.126L350.608 213.201C350.746 213.482 350.794 213.738 350.751 213.966C350.716 214.195 350.608 214.371 350.425 214.494C350.252 214.618 350.035 214.679 349.775 214.679C349.429 214.679 349.16 214.6 348.969 214.442C348.787 214.283 348.623 214.028 348.475 213.676L347.773 212L348.683 212.673H343.326L344.25 212L343.548 213.676C343.392 214.028 343.231 214.283 343.066 214.442C342.902 214.6 342.65 214.679 342.312 214.679ZM345.992 207.789L344.484 211.445L344.12 210.812H347.903L347.539 211.445L346.018 207.789H345.992Z" fill="url(#paint37_linear_650_20)"/>
<path d="M353.048 214.56C352.641 214.56 352.328 214.455 352.112 214.244C351.904 214.024 351.8 213.711 351.8 213.306V206.508C351.8 206.104 351.904 205.796 352.112 205.584C352.328 205.364 352.641 205.254 353.048 205.254H355.596C357.191 205.254 358.422 205.659 359.289 206.469C360.164 207.278 360.602 208.422 360.602 209.901C360.602 210.64 360.489 211.3 360.264 211.881C360.039 212.453 359.714 212.941 359.289 213.346C358.864 213.742 358.34 214.046 357.716 214.257C357.1 214.459 356.394 214.56 355.596 214.56H353.048ZM354.192 212.594H355.44C355.9 212.594 356.294 212.536 356.623 212.422C356.961 212.308 357.239 212.14 357.456 211.92C357.681 211.7 357.846 211.423 357.95 211.089C358.062 210.754 358.119 210.358 358.119 209.901C358.119 208.986 357.898 208.312 357.456 207.881C357.013 207.441 356.342 207.221 355.44 207.221H354.192V212.594Z" fill="url(#paint38_linear_650_20)"/>
<path d="M366.078 214.706C365.41 214.706 364.821 214.622 364.309 214.455C363.798 214.279 363.364 214.019 363.009 213.676C362.662 213.333 362.398 212.906 362.216 212.396C362.043 211.876 361.956 211.278 361.956 210.6V206.363C361.956 205.958 362.06 205.655 362.268 205.452C362.476 205.241 362.771 205.136 363.152 205.136C363.542 205.136 363.837 205.241 364.036 205.452C364.244 205.655 364.348 205.958 364.348 206.363V210.627C364.348 211.304 364.496 211.815 364.79 212.158C365.085 212.501 365.514 212.673 366.078 212.673C366.632 212.673 367.057 212.501 367.352 212.158C367.646 211.815 367.794 211.304 367.794 210.627V206.363C367.794 205.958 367.893 205.655 368.093 205.452C368.301 205.241 368.596 205.136 368.977 205.136C369.358 205.136 369.649 205.241 369.848 205.452C370.047 205.655 370.147 205.958 370.147 206.363V210.6C370.147 211.507 369.991 212.268 369.679 212.884C369.376 213.491 368.921 213.949 368.314 214.257C367.707 214.556 366.962 214.706 366.078 214.706Z" fill="url(#paint39_linear_650_20)"/>
<path d="M372.956 214.56C372.575 214.56 372.276 214.455 372.059 214.244C371.851 214.024 371.747 213.72 371.747 213.333V206.469C371.747 206.073 371.851 205.769 372.059 205.558C372.267 205.347 372.562 205.241 372.943 205.241C373.333 205.241 373.628 205.347 373.827 205.558C374.035 205.769 374.139 206.073 374.139 206.469V212.541H377.312C377.641 212.541 377.892 212.629 378.066 212.805C378.248 212.972 378.339 213.218 378.339 213.544C378.339 213.87 378.248 214.12 378.066 214.296C377.892 214.472 377.641 214.56 377.312 214.56H372.956Z" fill="url(#paint40_linear_650_20)"/>
<path d="M380.98 214.679C380.599 214.679 380.304 214.574 380.096 214.362C379.888 214.142 379.784 213.839 379.784 213.452V207.234H377.743C377.422 207.234 377.175 207.151 377.002 206.984C376.837 206.808 376.755 206.561 376.755 206.244C376.755 205.919 376.837 205.672 377.002 205.505C377.175 205.338 377.422 205.254 377.743 205.254H384.218C384.538 205.254 384.781 205.338 384.946 205.505C385.119 205.672 385.206 205.919 385.206 206.244C385.206 206.561 385.119 206.808 384.946 206.984C384.781 207.151 384.538 207.234 384.218 207.234H382.176V213.452C382.176 213.839 382.077 214.142 381.877 214.362C381.678 214.574 381.379 214.679 380.98 214.679Z" fill="url(#paint41_linear_650_20)"/>
<path d="M389.88 214.706C388.953 214.706 388.138 214.508 387.436 214.112C386.734 213.707 386.188 213.144 385.798 212.422C385.416 211.7 385.226 210.86 385.226 209.901C385.226 209.179 385.334 208.524 385.551 207.934C385.776 207.344 386.093 206.838 386.5 206.416C386.916 205.994 387.41 205.672 387.982 205.452C388.554 205.224 389.187 205.109 389.88 205.109C390.808 205.109 391.618 205.307 392.312 205.703C393.014 206.099 393.56 206.658 393.95 207.38C394.34 208.092 394.535 208.933 394.535 209.901C394.535 210.622 394.422 211.278 394.197 211.868C393.98 212.457 393.664 212.968 393.248 213.399C392.841 213.821 392.351 214.147 391.779 214.376C391.207 214.596 390.574 214.706 389.88 214.706ZM389.88 212.673C390.34 212.673 390.73 212.563 391.051 212.343C391.371 212.123 391.618 211.806 391.792 211.392C391.965 210.979 392.052 210.482 392.052 209.901C392.052 209.03 391.861 208.352 391.48 207.868C391.098 207.384 390.565 207.142 389.88 207.142C389.43 207.142 389.04 207.252 388.71 207.472C388.39 207.683 388.143 207.996 387.969 208.409C387.796 208.814 387.709 209.311 387.709 209.901C387.709 210.772 387.9 211.454 388.281 211.947C388.663 212.431 389.196 212.673 389.88 212.673Z" fill="url(#paint42_linear_650_20)"/>
<path d="M399.354 214.706C399.007 214.706 398.643 214.679 398.262 214.626C397.889 214.582 397.534 214.512 397.196 214.415C396.858 214.318 396.554 214.204 396.286 214.072C396.052 213.958 395.887 213.808 395.792 213.623C395.696 213.43 395.662 213.227 395.688 213.016C395.714 212.805 395.787 212.62 395.909 212.462C396.03 212.294 396.19 212.184 396.39 212.132C396.589 212.07 396.814 212.096 397.066 212.211C397.395 212.369 397.768 212.492 398.184 212.58C398.6 212.668 398.99 212.712 399.354 212.712C399.926 212.712 400.325 212.638 400.55 212.488C400.784 212.33 400.901 212.136 400.901 211.907C400.901 211.705 400.819 211.542 400.654 211.419C400.498 211.296 400.217 211.19 399.809 211.102L398.288 210.772C397.456 210.596 396.836 210.288 396.429 209.848C396.021 209.408 395.818 208.84 395.818 208.145C395.818 207.688 395.909 207.274 396.091 206.904C396.281 206.526 396.546 206.205 396.884 205.941C397.23 205.677 397.638 205.474 398.106 205.334C398.583 205.184 399.111 205.109 399.692 205.109C400.143 205.109 400.598 205.162 401.057 205.268C401.525 205.364 401.928 205.514 402.267 205.716C402.466 205.822 402.609 205.967 402.696 206.152C402.782 206.337 402.817 206.53 402.8 206.733C402.782 206.926 402.713 207.098 402.592 207.248C402.479 207.397 402.323 207.498 402.124 207.551C401.933 207.595 401.703 207.56 401.434 207.446C401.183 207.331 400.897 207.248 400.576 207.195C400.264 207.133 399.961 207.102 399.666 207.102C399.345 207.102 399.072 207.142 398.847 207.221C398.622 207.292 398.448 207.397 398.327 207.538C398.214 207.679 398.158 207.842 398.158 208.026C398.158 208.211 398.232 208.37 398.379 208.502C398.535 208.625 398.817 208.73 399.224 208.818L400.732 209.148C401.573 209.333 402.202 209.637 402.618 210.059C403.034 210.482 403.242 211.032 403.242 211.709C403.242 212.167 403.151 212.58 402.969 212.95C402.787 213.32 402.527 213.636 402.189 213.9C401.85 214.156 401.443 214.354 400.966 214.494C400.49 214.635 399.952 214.706 399.354 214.706Z" fill="url(#paint43_linear_650_20)"/>
<defs>
<linearGradient id="paint0_linear_650_20" x1="403.547" y1="-3.68469e-05" x2="-0.260997" y2="206.592" gradientUnits="userSpaceOnUse">
<stop stop-color="#F3BD1D"/>
<stop offset="0.557292" stop-color="#BAD9C9"/>
<stop offset="0.96875" stop-color="#BDBF6F"/>
</linearGradient>
<linearGradient id="paint1_linear_650_20" x1="0.241699" y1="210.069" x2="403.242" y2="210.069" gradientUnits="userSpaceOnUse">
<stop stop-color="#F3BD1D"/>
<stop offset="0.479167" stop-color="#BAD9C9"/>
<stop offset="1" stop-color="#BDBE6E"/>
</linearGradient>
<linearGradient id="paint2_linear_650_20" x1="0.241699" y1="210.069" x2="403.242" y2="210.069" gradientUnits="userSpaceOnUse">
<stop stop-color="#F3BD1D"/>
<stop offset="0.479167" stop-color="#BAD9C9"/>
<stop offset="1" stop-color="#BDBE6E"/>
</linearGradient>
<linearGradient id="paint3_linear_650_20" x1="0.241699" y1="210.069" x2="403.242" y2="210.069" gradientUnits="userSpaceOnUse">
<stop stop-color="#F3BD1D"/>
<stop offset="0.479167" stop-color="#BAD9C9"/>
<stop offset="1" stop-color="#BDBE6E"/>
</linearGradient>
<linearGradient id="paint4_linear_650_20" x1="0.241699" y1="210.069" x2="403.242" y2="210.069" gradientUnits="userSpaceOnUse">
<stop stop-color="#F3BD1D"/>
<stop offset="0.479167" stop-color="#BAD9C9"/>
<stop offset="1" stop-color="#BDBE6E"/>
</linearGradient>
<linearGradient id="paint5_linear_650_20" x1="0.241699" y1="210.069" x2="403.242" y2="210.069" gradientUnits="userSpaceOnUse">
<stop stop-color="#F3BD1D"/>
<stop offset="0.479167" stop-color="#BAD9C9"/>
<stop offset="1" stop-color="#BDBE6E"/>
</linearGradient>
<linearGradient id="paint6_linear_650_20" x1="0.241699" y1="210.069" x2="403.242" y2="210.069" gradientUnits="userSpaceOnUse">
<stop stop-color="#F3BD1D"/>
<stop offset="0.479167" stop-color="#BAD9C9"/>
<stop offset="1" stop-color="#BDBE6E"/>
</linearGradient>
<linearGradient id="paint7_linear_650_20" x1="0.241699" y1="210.069" x2="403.242" y2="210.069" gradientUnits="userSpaceOnUse">
<stop stop-color="#F3BD1D"/>
<stop offset="0.479167" stop-color="#BAD9C9"/>
<stop offset="1" stop-color="#BDBE6E"/>
</linearGradient>
<linearGradient id="paint8_linear_650_20" x1="0.241699" y1="210.069" x2="403.242" y2="210.069" gradientUnits="userSpaceOnUse">
<stop stop-color="#F3BD1D"/>
<stop offset="0.479167" stop-color="#BAD9C9"/>
<stop offset="1" stop-color="#BDBE6E"/>
</linearGradient>
<linearGradient id="paint9_linear_650_20" x1="0.241699" y1="210.069" x2="403.242" y2="210.069" gradientUnits="userSpaceOnUse">
<stop stop-color="#F3BD1D"/>
<stop offset="0.479167" stop-color="#BAD9C9"/>
<stop offset="1" stop-color="#BDBE6E"/>
</linearGradient>
<linearGradient id="paint10_linear_650_20" x1="0.241699" y1="210.069" x2="403.242" y2="210.069" gradientUnits="userSpaceOnUse">
<stop stop-color="#F3BD1D"/>
<stop offset="0.479167" stop-color="#BAD9C9"/>
<stop offset="1" stop-color="#BDBE6E"/>
</linearGradient>
<linearGradient id="paint11_linear_650_20" x1="0.241699" y1="210.069" x2="403.242" y2="210.069" gradientUnits="userSpaceOnUse">
<stop stop-color="#F3BD1D"/>
<stop offset="0.479167" stop-color="#BAD9C9"/>
<stop offset="1" stop-color="#BDBE6E"/>
</linearGradient>
<linearGradient id="paint12_linear_650_20" x1="0.241699" y1="210.069" x2="403.242" y2="210.069" gradientUnits="userSpaceOnUse">
<stop stop-color="#F3BD1D"/>
<stop offset="0.479167" stop-color="#BAD9C9"/>
<stop offset="1" stop-color="#BDBE6E"/>
</linearGradient>
<linearGradient id="paint13_linear_650_20" x1="0.241699" y1="210.069" x2="403.242" y2="210.069" gradientUnits="userSpaceOnUse">
<stop stop-color="#F3BD1D"/>
<stop offset="0.479167" stop-color="#BAD9C9"/>
<stop offset="1" stop-color="#BDBE6E"/>
</linearGradient>
<linearGradient id="paint14_linear_650_20" x1="0.241699" y1="210.069" x2="403.242" y2="210.069" gradientUnits="userSpaceOnUse">
<stop stop-color="#F3BD1D"/>
<stop offset="0.479167" stop-color="#BAD9C9"/>
<stop offset="1" stop-color="#BDBE6E"/>
</linearGradient>
<linearGradient id="paint15_linear_650_20" x1="0.241699" y1="210.069" x2="403.242" y2="210.069" gradientUnits="userSpaceOnUse">
<stop stop-color="#F3BD1D"/>
<stop offset="0.479167" stop-color="#BAD9C9"/>
<stop offset="1" stop-color="#BDBE6E"/>
</linearGradient>
<linearGradient id="paint16_linear_650_20" x1="0.241699" y1="210.069" x2="403.242" y2="210.069" gradientUnits="userSpaceOnUse">
<stop stop-color="#F3BD1D"/>
<stop offset="0.479167" stop-color="#BAD9C9"/>
<stop offset="1" stop-color="#BDBE6E"/>
</linearGradient>
<linearGradient id="paint17_linear_650_20" x1="0.241699" y1="210.069" x2="403.242" y2="210.069" gradientUnits="userSpaceOnUse">
<stop stop-color="#F3BD1D"/>
<stop offset="0.479167" stop-color="#BAD9C9"/>
<stop offset="1" stop-color="#BDBE6E"/>
</linearGradient>
<linearGradient id="paint18_linear_650_20" x1="0.241699" y1="210.069" x2="403.242" y2="210.069" gradientUnits="userSpaceOnUse">
<stop stop-color="#F3BD1D"/>
<stop offset="0.479167" stop-color="#BAD9C9"/>
<stop offset="1" stop-color="#BDBE6E"/>
</linearGradient>
<linearGradient id="paint19_linear_650_20" x1="0.241699" y1="210.069" x2="403.242" y2="210.069" gradientUnits="userSpaceOnUse">
<stop stop-color="#F3BD1D"/>
<stop offset="0.479167" stop-color="#BAD9C9"/>
<stop offset="1" stop-color="#BDBE6E"/>
</linearGradient>
<linearGradient id="paint20_linear_650_20" x1="0.241699" y1="210.069" x2="403.242" y2="210.069" gradientUnits="userSpaceOnUse">
<stop stop-color="#F3BD1D"/>
<stop offset="0.479167" stop-color="#BAD9C9"/>
<stop offset="1" stop-color="#BDBE6E"/>
</linearGradient>
<linearGradient id="paint21_linear_650_20" x1="0.241699" y1="210.069" x2="403.242" y2="210.069" gradientUnits="userSpaceOnUse">
<stop stop-color="#F3BD1D"/>
<stop offset="0.479167" stop-color="#BAD9C9"/>
<stop offset="1" stop-color="#BDBE6E"/>
</linearGradient>
<linearGradient id="paint22_linear_650_20" x1="0.241699" y1="210.069" x2="403.242" y2="210.069" gradientUnits="userSpaceOnUse">
<stop stop-color="#F3BD1D"/>
<stop offset="0.479167" stop-color="#BAD9C9"/>
<stop offset="1" stop-color="#BDBE6E"/>
</linearGradient>
<linearGradient id="paint23_linear_650_20" x1="0.241699" y1="210.069" x2="403.242" y2="210.069" gradientUnits="userSpaceOnUse">
<stop stop-color="#F3BD1D"/>
<stop offset="0.479167" stop-color="#BAD9C9"/>
<stop offset="1" stop-color="#BDBE6E"/>
</linearGradient>
<linearGradient id="paint24_linear_650_20" x1="0.241699" y1="210.069" x2="403.242" y2="210.069" gradientUnits="userSpaceOnUse">
<stop stop-color="#F3BD1D"/>
<stop offset="0.479167" stop-color="#BAD9C9"/>
<stop offset="1" stop-color="#BDBE6E"/>
</linearGradient>
<linearGradient id="paint25_linear_650_20" x1="0.241699" y1="210.069" x2="403.242" y2="210.069" gradientUnits="userSpaceOnUse">
<stop stop-color="#F3BD1D"/>
<stop offset="0.479167" stop-color="#BAD9C9"/>
<stop offset="1" stop-color="#BDBE6E"/>
</linearGradient>
<linearGradient id="paint26_linear_650_20" x1="0.241699" y1="210.069" x2="403.242" y2="210.069" gradientUnits="userSpaceOnUse">
<stop stop-color="#F3BD1D"/>
<stop offset="0.479167" stop-color="#BAD9C9"/>
<stop offset="1" stop-color="#BDBE6E"/>
</linearGradient>
<linearGradient id="paint27_linear_650_20" x1="0.241699" y1="210.069" x2="403.242" y2="210.069" gradientUnits="userSpaceOnUse">
<stop stop-color="#F3BD1D"/>
<stop offset="0.479167" stop-color="#BAD9C9"/>
<stop offset="1" stop-color="#BDBE6E"/>
</linearGradient>
<linearGradient id="paint28_linear_650_20" x1="0.241699" y1="210.069" x2="403.242" y2="210.069" gradientUnits="userSpaceOnUse">
<stop stop-color="#F3BD1D"/>
<stop offset="0.479167" stop-color="#BAD9C9"/>
<stop offset="1" stop-color="#BDBE6E"/>
</linearGradient>
<linearGradient id="paint29_linear_650_20" x1="0.241699" y1="210.069" x2="403.242" y2="210.069" gradientUnits="userSpaceOnUse">
<stop stop-color="#F3BD1D"/>
<stop offset="0.479167" stop-color="#BAD9C9"/>
<stop offset="1" stop-color="#BDBE6E"/>
</linearGradient>
<linearGradient id="paint30_linear_650_20" x1="0.241699" y1="210.069" x2="403.242" y2="210.069" gradientUnits="userSpaceOnUse">
<stop stop-color="#F3BD1D"/>
<stop offset="0.479167" stop-color="#BAD9C9"/>
<stop offset="1" stop-color="#BDBE6E"/>
</linearGradient>
<linearGradient id="paint31_linear_650_20" x1="0.241699" y1="210.069" x2="403.242" y2="210.069" gradientUnits="userSpaceOnUse">
<stop stop-color="#F3BD1D"/>
<stop offset="0.479167" stop-color="#BAD9C9"/>
<stop offset="1" stop-color="#BDBE6E"/>
</linearGradient>
<linearGradient id="paint32_linear_650_20" x1="0.241699" y1="210.069" x2="403.242" y2="210.069" gradientUnits="userSpaceOnUse">
<stop stop-color="#F3BD1D"/>
<stop offset="0.479167" stop-color="#BAD9C9"/>
<stop offset="1" stop-color="#BDBE6E"/>
</linearGradient>
<linearGradient id="paint33_linear_650_20" x1="0.241699" y1="210.069" x2="403.242" y2="210.069" gradientUnits="userSpaceOnUse">
<stop stop-color="#F3BD1D"/>
<stop offset="0.479167" stop-color="#BAD9C9"/>
<stop offset="1" stop-color="#BDBE6E"/>
</linearGradient>
<linearGradient id="paint34_linear_650_20" x1="0.241699" y1="210.069" x2="403.242" y2="210.069" gradientUnits="userSpaceOnUse">
<stop stop-color="#F3BD1D"/>
<stop offset="0.479167" stop-color="#BAD9C9"/>
<stop offset="1" stop-color="#BDBE6E"/>
</linearGradient>
<linearGradient id="paint35_linear_650_20" x1="0.241699" y1="210.069" x2="403.242" y2="210.069" gradientUnits="userSpaceOnUse">
<stop stop-color="#F3BD1D"/>
<stop offset="0.479167" stop-color="#BAD9C9"/>
<stop offset="1" stop-color="#BDBE6E"/>
</linearGradient>
<linearGradient id="paint36_linear_650_20" x1="0.241699" y1="210.069" x2="403.242" y2="210.069" gradientUnits="userSpaceOnUse">
<stop stop-color="#F3BD1D"/>
<stop offset="0.479167" stop-color="#BAD9C9"/>
<stop offset="1" stop-color="#BDBE6E"/>
</linearGradient>
<linearGradient id="paint37_linear_650_20" x1="0.241699" y1="210.069" x2="403.242" y2="210.069" gradientUnits="userSpaceOnUse">
<stop stop-color="#F3BD1D"/>
<stop offset="0.479167" stop-color="#BAD9C9"/>
<stop offset="1" stop-color="#BDBE6E"/>
</linearGradient>
<linearGradient id="paint38_linear_650_20" x1="0.241699" y1="210.069" x2="403.242" y2="210.069" gradientUnits="userSpaceOnUse">
<stop stop-color="#F3BD1D"/>
<stop offset="0.479167" stop-color="#BAD9C9"/>
<stop offset="1" stop-color="#BDBE6E"/>
</linearGradient>
<linearGradient id="paint39_linear_650_20" x1="0.241699" y1="210.069" x2="403.242" y2="210.069" gradientUnits="userSpaceOnUse">
<stop stop-color="#F3BD1D"/>
<stop offset="0.479167" stop-color="#BAD9C9"/>
<stop offset="1" stop-color="#BDBE6E"/>
</linearGradient>
<linearGradient id="paint40_linear_650_20" x1="0.241699" y1="210.069" x2="403.242" y2="210.069" gradientUnits="userSpaceOnUse">
<stop stop-color="#F3BD1D"/>
<stop offset="0.479167" stop-color="#BAD9C9"/>
<stop offset="1" stop-color="#BDBE6E"/>
</linearGradient>
<linearGradient id="paint41_linear_650_20" x1="0.241699" y1="210.069" x2="403.242" y2="210.069" gradientUnits="userSpaceOnUse">
<stop stop-color="#F3BD1D"/>
<stop offset="0.479167" stop-color="#BAD9C9"/>
<stop offset="1" stop-color="#BDBE6E"/>
</linearGradient>
<linearGradient id="paint42_linear_650_20" x1="0.241699" y1="210.069" x2="403.242" y2="210.069" gradientUnits="userSpaceOnUse">
<stop stop-color="#F3BD1D"/>
<stop offset="0.479167" stop-color="#BAD9C9"/>
<stop offset="1" stop-color="#BDBE6E"/>
</linearGradient>
<linearGradient id="paint43_linear_650_20" x1="0.241699" y1="210.069" x2="403.242" y2="210.069" gradientUnits="userSpaceOnUse">
<stop stop-color="#F3BD1D"/>
<stop offset="0.479167" stop-color="#BAD9C9"/>
<stop offset="1" stop-color="#BDBE6E"/>
</linearGradient>
</defs>
</svg>
