<svg width="676" height="1080" viewBox="0 0 676 1080" fill="none" xmlns="http://www.w3.org/2000/svg">
<path fill-rule="evenodd" clip-rule="evenodd" d="M0.64748 396.181L0.647358 392.036L0.647419 195.782L0.647358 10.8934L0.647419 0L532.297 0V195.523C532.297 249.49 521.654 295.957 500.367 334.924C485.01 363.392 464.709 387.116 439.464 406.097L532.297 437.303V607.739L531.854 607.888V661.2H532.297L532.297 1080.18H459.092L105.005 822.842L105.005 1079.92L0.64748 1079.92V786.452L0.64748 660.941V648.861L112.273 613.945V431.025L0.64748 396.181ZM422.201 914.105L422.201 644.748L168.784 729.933L422.201 914.105ZM209.881 583.413V461.493L398.347 520.323V524.461L209.881 583.413ZM110.196 128.021V190.868C110.196 220.524 115.215 245.611 125.253 266.129C135.464 286.819 151.991 302.423 174.835 312.941C197.853 323.631 228.485 328.976 266.732 328.976C304.979 328.976 335.438 323.631 358.109 312.941C380.954 302.251 397.395 286.474 407.432 265.612C417.643 244.921 422.748 219.403 422.748 189.057L422.748 128.021L110.196 128.021Z" fill="white"/>
<path d="M642.653 3.20562C642.653 2.18354 642.934 1.39375 643.498 0.836249C644.084 0.278749 644.894 0 645.926 0L664.512 0C665.568 0 666.378 0.278749 666.941 0.836249C667.504 1.41698 667.786 2.21838 667.786 3.24046V11.812C667.786 14.5995 667.058 16.7482 665.603 18.2581C664.172 19.7912 662.189 20.5578 659.654 20.5578C657.12 20.5578 655.125 19.7912 653.67 18.2581C652.239 16.7482 651.523 14.5995 651.523 11.812V6.41124H645.926C644.894 6.41124 644.084 6.1441 643.498 5.60983C642.934 5.07556 642.653 4.27416 642.653 3.20562ZM656.486 6.41124V10.697C656.486 11.9049 656.745 12.8341 657.261 13.4845C657.801 14.1349 658.598 14.4601 659.654 14.4601C660.734 14.4601 661.532 14.1349 662.048 13.4845C662.564 12.8341 662.822 11.9049 662.822 10.697V6.41124H656.486Z" fill="white"/>
<path d="M642.97 26.7872C642.97 25.7651 643.251 24.9637 643.814 24.383C644.401 23.8255 645.211 23.5467 646.243 23.5467L664.547 23.5467C665.603 23.5467 666.413 23.8255 666.976 24.383C667.539 24.9405 667.821 25.7303 667.821 26.7523C667.821 27.7976 667.539 28.5874 666.976 29.1217C666.413 29.6792 665.603 29.958 664.547 29.958H648.355V38.4598C648.355 39.3425 648.121 40.0162 647.651 40.4807C647.205 40.9686 646.548 41.2125 645.68 41.2125C644.812 41.2125 644.143 40.9686 643.674 40.4807C643.204 40.0162 642.97 39.3425 642.97 38.4598V26.7872Z" fill="white"/>
<path d="M642.653 44.7725C642.653 44.0524 642.817 43.4484 643.146 42.9606C643.498 42.4728 643.967 42.1708 644.554 42.0547C645.164 41.9386 645.844 42.0431 646.595 42.3683L665.462 51.0444C666.378 51.4625 667.046 51.9735 667.469 52.5775C667.891 53.2047 668.102 53.9132 668.102 54.703C668.102 55.4927 667.891 56.178 667.469 56.7587C667.046 57.3627 666.378 57.8854 665.462 58.3267L646.595 67.0028C645.844 67.3745 645.164 67.5022 644.554 67.3861C643.943 67.2932 643.474 67.0028 643.146 66.515C642.817 66.0504 642.653 65.4697 642.653 64.7728C642.653 63.8436 642.864 63.1235 643.286 62.6125C643.709 62.1247 644.389 61.6833 645.328 61.2884L649.798 59.4069L648.003 61.8459V47.4903L649.798 49.9642L645.328 48.0827C644.389 47.6645 643.709 47.2348 643.286 46.7934C642.864 46.3521 642.653 45.6784 642.653 44.7725ZM661.027 54.6333L651.277 50.5914L652.966 49.6158V59.7553L651.277 58.7797L661.027 54.703V54.6333Z" fill="white"/>
<path d="M642.653 76.4313C642.653 75.4092 642.934 74.6194 643.498 74.0619C644.084 73.5044 644.894 73.2256 645.926 73.2256H662.506V67.7552C662.506 66.8957 662.729 66.2337 663.174 65.7691C663.644 65.3277 664.301 65.1071 665.146 65.1071C666.014 65.1071 666.671 65.3277 667.117 65.7691C667.563 66.2337 667.786 66.8957 667.786 67.7552V85.1074C667.786 85.9668 667.563 86.6172 667.117 87.0586C666.671 87.5232 666.014 87.7555 665.146 87.7555C664.301 87.7555 663.644 87.5232 663.174 87.0586C662.729 86.6172 662.506 85.9668 662.506 85.1074V79.6369H645.926C644.894 79.6369 644.084 79.3698 643.498 78.8355C642.934 78.3012 642.653 77.4998 642.653 76.4313Z" fill="white"/>
<path d="M642.653 88.2591C642.653 87.539 642.817 86.935 643.146 86.4472C643.498 85.9594 643.967 85.6574 644.554 85.5413C645.164 85.4251 645.844 85.5296 646.595 85.8549L665.462 94.5309C666.378 94.9491 667.046 95.4601 667.469 96.0641C667.891 96.6912 668.102 97.3997 668.102 98.1895C668.102 98.9793 667.891 99.6646 667.469 100.245C667.046 100.849 666.378 101.372 665.462 101.813L646.595 110.489C645.844 110.861 645.164 110.989 644.554 110.873C643.943 110.78 643.474 110.489 643.146 110.002C642.817 109.537 642.653 108.956 642.653 108.259C642.653 107.33 642.864 106.61 643.286 106.099C643.709 105.611 644.389 105.17 645.328 104.775L649.798 102.893L648.003 105.332V90.9769L649.798 93.4508L645.328 91.5692C644.389 91.1511 643.709 90.7214 643.286 90.28C642.864 89.8386 642.653 89.165 642.653 88.2591ZM661.027 98.1198L651.277 94.078L652.966 93.1023V103.242L651.277 102.266L661.027 98.1895V98.1198Z" fill="white"/>
<path d="M642.653 116.925C642.653 115.903 642.934 115.101 643.498 114.521C644.084 113.963 644.917 113.684 645.997 113.684H664.442C665.521 113.684 666.342 113.963 666.906 114.521C667.492 115.101 667.786 115.938 667.786 117.029V128.632C667.786 129.469 667.574 130.096 667.152 130.514C666.73 130.932 666.119 131.141 665.322 131.141C664.5 131.141 663.867 130.932 663.421 130.514C662.998 130.096 662.787 129.469 662.787 128.632V120.096H657.789V127.866C657.789 128.679 657.578 129.294 657.155 129.712C656.733 130.154 656.123 130.374 655.325 130.374C654.503 130.374 653.882 130.154 653.459 129.712C653.037 129.294 652.826 128.679 652.826 127.866V120.096H645.997C643.767 120.096 642.653 119.039 642.653 116.925Z" fill="white"/>
<path d="M642.582 145.437C642.582 142.952 643.11 140.768 644.166 138.886C645.246 137.005 646.748 135.541 648.672 134.496C650.596 133.474 652.837 132.963 655.395 132.963C657.319 132.963 659.068 133.253 660.64 133.834C662.212 134.438 663.562 135.286 664.688 136.378C665.814 137.493 666.671 138.817 667.258 140.35C667.868 141.883 668.173 143.579 668.173 145.437C668.173 147.923 667.645 150.094 666.589 151.953C665.533 153.834 664.043 155.298 662.118 156.343C660.218 157.388 657.977 157.911 655.395 157.911C653.471 157.911 651.723 157.609 650.15 157.005C648.578 156.424 647.217 155.577 646.067 154.462C644.941 153.37 644.073 152.057 643.462 150.524C642.876 148.991 642.582 147.295 642.582 145.437ZM648.003 145.437C648.003 146.668 648.297 147.713 648.883 148.573C649.47 149.432 650.315 150.094 651.418 150.559C652.521 151.024 653.846 151.256 655.395 151.256C657.718 151.256 659.525 150.745 660.816 149.723C662.107 148.701 662.752 147.272 662.752 145.437C662.752 144.229 662.459 143.184 661.872 142.301C661.309 141.442 660.476 140.78 659.373 140.315C658.293 139.85 656.967 139.618 655.395 139.618C653.072 139.618 651.253 140.129 649.939 141.151C648.649 142.173 648.003 143.602 648.003 145.437Z" fill="white"/>
<path d="M642.653 164.902C642.653 163.88 642.934 163.09 643.498 162.533C644.084 161.975 644.894 161.697 645.926 161.697H664.512C665.568 161.697 666.378 161.975 666.941 162.533C667.504 163.113 667.786 163.915 667.786 164.937V173.509C667.786 176.296 667.093 178.445 665.709 179.955C664.348 181.488 662.447 182.254 660.006 182.254C658.434 182.254 657.061 181.906 655.888 181.209C654.738 180.535 653.846 179.548 653.213 178.247C652.603 176.97 652.298 175.39 652.298 173.509L652.931 173.787V175.46C652.931 176.459 652.685 177.341 652.192 178.108C651.723 178.874 650.995 179.513 650.01 180.024L646.842 181.766C646.161 182.138 645.492 182.312 644.835 182.289C644.202 182.266 643.674 182.01 643.251 181.523C642.852 181.058 642.653 180.373 642.653 179.467C642.653 178.561 642.841 177.818 643.216 177.237C643.591 176.679 644.178 176.18 644.976 175.739L650.854 172.568C651.371 172.289 651.723 171.929 651.91 171.488C652.122 171.069 652.227 170.582 652.227 170.024V168.108H645.926C644.894 168.108 644.084 167.841 643.498 167.306C642.934 166.772 642.653 165.971 642.653 164.902ZM656.803 168.108V172.359C656.803 173.59 657.05 174.531 657.542 175.181C658.035 175.831 658.798 176.157 659.83 176.157C660.816 176.157 661.555 175.831 662.048 175.181C662.564 174.531 662.822 173.59 662.822 172.359V168.108H656.803Z" fill="white"/>
<path d="M642.653 189.26C642.653 188.331 642.911 187.61 643.427 187.099C643.943 186.612 644.671 186.368 645.61 186.368H665.146C666.108 186.368 666.835 186.635 667.328 187.169C667.844 187.703 668.102 188.458 668.102 189.434C668.102 190.247 667.938 190.886 667.61 191.35C667.305 191.838 666.788 192.28 666.061 192.674L652.474 200.166V198.946L666.061 206.403C666.788 206.821 667.305 207.262 667.61 207.727C667.938 208.215 668.102 208.865 668.102 209.678C668.102 210.607 667.844 211.316 667.328 211.804C666.835 212.315 666.108 212.57 665.146 212.57H645.61C644.671 212.57 643.943 212.326 643.427 211.838C642.911 211.351 642.653 210.631 642.653 209.678C642.653 208.749 642.911 208.029 643.427 207.518C643.943 207.03 644.671 206.786 645.61 206.786H657.718V207.518L647.862 201.908C647.346 201.583 646.959 201.234 646.701 200.863C646.443 200.514 646.314 200.038 646.314 199.434C646.314 198.853 646.443 198.377 646.701 198.006C646.959 197.634 647.346 197.297 647.862 196.995L657.754 191.35V192.152H645.61C644.671 192.152 643.943 191.908 643.427 191.42C642.911 190.932 642.653 190.212 642.653 189.26Z" fill="white"/>
<path d="M642.653 218.242C642.653 217.522 642.817 216.918 643.146 216.43C643.498 215.943 643.967 215.641 644.554 215.525C645.164 215.408 645.844 215.513 646.595 215.838L665.462 224.514C666.378 224.932 667.046 225.443 667.469 226.047C667.891 226.675 668.102 227.383 668.102 228.173C668.102 228.963 667.891 229.648 667.469 230.229C667.046 230.833 666.378 231.355 665.462 231.797L646.595 240.473C645.844 240.844 645.164 240.972 644.554 240.856C643.943 240.763 643.474 240.473 643.146 239.985C642.817 239.52 642.653 238.94 642.653 238.243C642.653 237.313 642.864 236.593 643.286 236.082C643.709 235.595 644.389 235.153 645.328 234.758L649.798 232.877L648.003 235.316V220.96L649.798 223.434L645.328 221.553C644.389 221.134 643.709 220.705 643.286 220.263C642.864 219.822 642.653 219.148 642.653 218.242ZM661.027 228.103L651.277 224.061L652.966 223.086V233.225L651.277 232.25L661.027 228.173V228.103Z" fill="white"/>
<path d="M642.653 256.843C642.653 255.821 642.934 255.031 643.498 254.474C644.084 253.916 644.894 253.638 645.926 253.638H664.512C665.568 253.638 666.378 253.916 666.941 254.474C667.504 255.055 667.786 255.856 667.786 256.878V265.45C667.786 268.237 667.058 270.386 665.603 271.896C664.172 273.429 662.189 274.195 659.654 274.195C657.12 274.195 655.125 273.429 653.67 271.896C652.239 270.386 651.523 268.237 651.523 265.45V260.049H645.926C644.894 260.049 644.084 259.782 643.498 259.247C642.934 258.713 642.653 257.912 642.653 256.843ZM656.486 260.049V264.335C656.486 265.542 656.745 266.472 657.261 267.122C657.801 267.772 658.598 268.098 659.654 268.098C660.734 268.098 661.532 267.772 662.048 267.122C662.564 266.472 662.822 265.542 662.822 264.335V260.049H656.486Z" fill="white"/>
<path d="M642.653 275.748C642.653 275.028 642.817 274.424 643.146 273.936C643.498 273.448 643.967 273.146 644.554 273.03C645.164 272.914 645.844 273.019 646.595 273.344L665.462 282.02C666.378 282.438 667.046 282.949 667.469 283.553C667.891 284.18 668.102 284.889 668.102 285.679C668.102 286.468 667.891 287.154 667.469 287.734C667.046 288.338 666.378 288.861 665.462 289.302L646.595 297.978C645.844 298.35 645.164 298.478 644.554 298.362C643.943 298.269 643.474 297.978 643.146 297.491C642.817 297.026 642.653 296.445 642.653 295.748C642.653 294.819 642.864 294.099 643.286 293.588C643.709 293.1 644.389 292.659 645.328 292.264L649.798 290.382L648.003 292.821V278.466L649.798 280.94L645.328 279.058C644.389 278.64 643.709 278.21 643.286 277.769C642.864 277.328 642.653 276.654 642.653 275.748ZM661.027 285.609L651.277 281.567L652.966 280.591V290.731L651.277 289.755L661.027 285.679V285.609Z" fill="white"/>
<path d="M642.653 304.379C642.653 303.357 642.934 302.567 643.498 302.01C644.084 301.452 644.894 301.173 645.926 301.173H664.512C665.568 301.173 666.378 301.452 666.941 302.01C667.504 302.59 667.786 303.392 667.786 304.414V312.985C667.786 315.773 667.093 317.922 665.709 319.431C664.348 320.965 662.447 321.731 660.006 321.731C658.434 321.731 657.061 321.383 655.888 320.686C654.738 320.012 653.846 319.025 653.213 317.724C652.603 316.446 652.298 314.867 652.298 312.985L652.931 313.264V314.937C652.931 315.935 652.685 316.818 652.192 317.585C651.723 318.351 650.995 318.99 650.01 319.501L646.842 321.243C646.161 321.615 645.492 321.789 644.835 321.766C644.202 321.743 643.674 321.487 643.251 320.999C642.852 320.535 642.653 319.85 642.653 318.944C642.653 318.038 642.841 317.294 643.216 316.714C643.591 316.156 644.178 315.657 644.976 315.215L650.854 312.045C651.371 311.766 651.723 311.406 651.91 310.964C652.122 310.546 652.227 310.058 652.227 309.501V307.585H645.926C644.894 307.585 644.084 307.317 643.498 306.783C642.934 306.249 642.653 305.447 642.653 304.379ZM656.803 307.585V311.836C656.803 313.067 657.05 314.007 657.542 314.658C658.035 315.308 658.798 315.633 659.83 315.633C660.816 315.633 661.555 315.308 662.048 314.658C662.564 314.007 662.822 313.067 662.822 311.836V307.585H656.803Z" fill="white"/>
<path d="M642.653 326.448C642.653 325.728 642.817 325.124 643.146 324.636C643.498 324.149 643.967 323.847 644.554 323.731C645.164 323.614 645.844 323.719 646.595 324.044L665.462 332.72C666.378 333.138 667.046 333.649 667.469 334.253C667.891 334.881 668.102 335.589 668.102 336.379C668.102 337.169 667.891 337.854 667.469 338.435C667.046 339.039 666.378 339.561 665.462 340.003L646.595 348.679C645.844 349.05 645.164 349.178 644.554 349.062C643.943 348.969 643.474 348.679 643.146 348.191C642.817 347.726 642.653 347.146 642.653 346.449C642.653 345.519 642.864 344.799 643.286 344.288C643.709 343.801 644.389 343.359 645.328 342.964L649.798 341.083L648.003 343.522V329.166L649.798 331.64L645.328 329.759C644.389 329.34 643.709 328.911 643.286 328.469C642.864 328.028 642.653 327.354 642.653 326.448ZM661.027 336.309L651.277 332.267L652.966 331.292V341.431L651.277 340.456L661.027 336.379V336.309Z" fill="white"/>
<path d="M642.653 362.993C642.653 362.273 642.817 361.669 643.146 361.182C643.498 360.694 643.967 360.392 644.554 360.276C645.164 360.159 645.844 360.264 646.595 360.589L665.462 369.265C666.378 369.683 667.046 370.194 667.469 370.798C667.891 371.426 668.102 372.134 668.102 372.924C668.102 373.714 667.891 374.399 667.469 374.98C667.046 375.584 666.378 376.106 665.462 376.548L646.595 385.224C645.844 385.595 645.164 385.723 644.554 385.607C643.943 385.514 643.474 385.224 643.146 384.736C642.817 384.271 642.653 383.691 642.653 382.994C642.653 382.065 642.864 381.344 643.286 380.833C643.709 380.346 644.389 379.904 645.328 379.509L649.798 377.628L648.003 380.067V365.711L649.798 368.185L645.328 366.304C644.389 365.885 643.709 365.456 643.286 365.014C642.864 364.573 642.653 363.899 642.653 362.993ZM661.027 372.854L651.277 368.812L652.966 367.837V377.976L651.277 377.001L661.027 372.924V372.854Z" fill="white"/>
<path d="M642.97 391.659C642.97 390.637 643.251 389.836 643.814 389.255C644.401 388.697 645.211 388.419 646.243 388.419H664.547C665.603 388.419 666.413 388.697 666.976 389.255C667.539 389.812 667.821 390.602 667.821 391.624C667.821 392.67 667.539 393.459 666.976 393.994C666.413 394.551 665.603 394.83 664.547 394.83H648.355V403.332C648.355 404.214 648.121 404.888 647.651 405.353C647.205 405.841 646.548 406.084 645.68 406.084C644.812 406.084 644.143 405.841 643.674 405.353C643.204 404.888 642.97 404.214 642.97 403.332V391.659Z" fill="white"/>
<path d="M642.653 412.041C642.653 411.019 642.934 410.218 643.498 409.637C644.084 409.08 644.917 408.801 645.997 408.801H664.442C665.521 408.801 666.342 409.08 666.906 409.637C667.492 410.218 667.786 411.054 667.786 412.146V423.749C667.786 424.585 667.574 425.212 667.152 425.63C666.73 426.049 666.119 426.258 665.322 426.258C664.5 426.258 663.867 426.049 663.421 425.63C662.998 425.212 662.787 424.585 662.787 423.749V415.212H657.789V422.982C657.789 423.795 657.578 424.411 657.155 424.829C656.733 425.27 656.123 425.491 655.325 425.491C654.503 425.491 653.882 425.27 653.459 424.829C653.037 424.411 652.826 423.795 652.826 422.982V415.212H645.997C643.767 415.212 642.653 414.155 642.653 412.041Z" fill="white"/>
<path d="M642.653 428.325C642.653 427.605 642.817 427.001 643.146 426.513C643.498 426.026 643.967 425.724 644.554 425.608C645.164 425.491 645.844 425.596 646.595 425.921L665.462 434.597C666.378 435.015 667.046 435.526 667.469 436.13C667.891 436.757 668.102 437.466 668.102 438.256C668.102 439.046 667.891 439.731 667.469 440.312C667.046 440.916 666.378 441.438 665.462 441.88L646.595 450.556C645.844 450.927 645.164 451.055 644.554 450.939C643.943 450.846 643.474 450.556 643.146 450.068C642.817 449.603 642.653 449.022 642.653 448.326C642.653 447.396 642.864 446.676 643.286 446.165C643.709 445.677 644.389 445.236 645.328 444.841L649.798 442.96L648.003 445.399V431.043L649.798 433.517L645.328 431.635C644.389 431.217 643.709 430.788 643.286 430.346C642.864 429.905 642.653 429.231 642.653 428.325ZM661.027 438.186L651.277 434.144L652.966 433.169V443.308L651.277 442.332L661.027 438.256V438.186Z" fill="white"/>
<path d="M642.97 457.096C642.97 456.004 643.251 455.168 643.814 454.587C644.401 454.029 645.234 453.751 646.314 453.751H664.442C665.521 453.751 666.342 454.029 666.906 454.587C667.492 455.168 667.786 456.004 667.786 457.096V465.597C667.786 467.363 667.516 468.861 666.976 470.092C666.46 471.347 665.721 472.299 664.758 472.949C663.796 473.6 662.67 473.925 661.379 473.925C659.924 473.925 658.681 473.507 657.648 472.671C656.615 471.858 655.911 470.743 655.536 469.326H656.099C655.794 470.998 655.114 472.287 654.058 473.193C653.002 474.123 651.652 474.587 650.01 474.587C647.827 474.587 646.102 473.809 644.835 472.253C643.591 470.719 642.97 468.617 642.97 465.946V457.096ZM647.722 459.883V465.075C647.722 466.259 647.945 467.119 648.39 467.653C648.86 468.211 649.552 468.489 650.467 468.489C651.382 468.489 652.063 468.211 652.509 467.653C652.955 467.119 653.178 466.259 653.178 465.075V459.883H647.722ZM657.93 459.883V464.448C657.93 465.609 658.141 466.457 658.563 466.991C658.986 467.549 659.631 467.827 660.499 467.827C661.367 467.827 662.001 467.549 662.4 466.991C662.822 466.457 663.034 465.609 663.034 464.448V459.883H657.93Z" fill="white"/>
<path d="M642.97 481.561C642.97 480.469 643.251 479.633 643.814 479.052C644.401 478.495 645.234 478.216 646.314 478.216H664.442C665.521 478.216 666.342 478.495 666.906 479.052C667.492 479.633 667.786 480.469 667.786 481.561V493.373C667.786 494.209 667.574 494.836 667.152 495.255C666.73 495.673 666.119 495.882 665.322 495.882C664.5 495.882 663.867 495.673 663.421 495.255C662.998 494.836 662.787 494.209 662.787 493.373V484.349H658.07V492.607C658.07 493.42 657.859 494.035 657.437 494.453C657.014 494.895 656.393 495.115 655.571 495.115C654.75 495.115 654.128 494.895 653.706 494.453C653.283 494.035 653.072 493.42 653.072 492.607V484.349H647.968V493.373C647.968 494.209 647.745 494.836 647.299 495.255C646.877 495.673 646.267 495.882 645.469 495.882C644.647 495.882 644.026 495.673 643.603 495.255C643.181 494.836 642.97 494.209 642.97 493.373V481.561Z" fill="white"/>
<path d="M642.653 508.779C642.653 507.757 642.934 506.967 643.498 506.409C644.084 505.852 644.894 505.573 645.926 505.573H662.506V500.103C662.506 499.243 662.729 498.581 663.174 498.117C663.644 497.675 664.301 497.455 665.146 497.455C666.014 497.455 666.671 497.675 667.117 498.117C667.563 498.581 667.786 499.243 667.786 500.103V517.455C667.786 518.314 667.563 518.965 667.117 519.406C666.671 519.871 666.014 520.103 665.146 520.103C664.301 520.103 663.644 519.871 663.174 519.406C662.729 518.965 662.506 518.314 662.506 517.455V511.984H645.926C644.894 511.984 644.084 511.717 643.498 511.183C642.934 510.649 642.653 509.847 642.653 508.779Z" fill="white"/>
<path d="M642.653 525.419C642.653 524.397 642.934 523.607 643.498 523.049C644.084 522.492 644.906 522.213 645.962 522.213H664.794C665.873 522.213 666.694 522.492 667.258 523.049C667.821 523.607 668.102 524.397 668.102 525.419C668.102 526.464 667.821 527.254 667.258 527.788C666.694 528.346 665.873 528.624 664.794 528.624H645.962C644.906 528.624 644.084 528.357 643.498 527.823C642.934 527.289 642.653 526.487 642.653 525.419Z" fill="white"/>
<path d="M642.97 535.332C642.97 534.519 643.146 533.846 643.498 533.312C643.85 532.801 644.319 532.452 644.906 532.266C645.516 532.08 646.173 532.08 646.877 532.266C647.604 532.452 648.332 532.835 649.059 533.416L664.301 545.437H662.47V534.845C662.47 533.939 662.693 533.253 663.139 532.789C663.609 532.324 664.277 532.092 665.146 532.092C666.014 532.092 666.671 532.324 667.117 532.789C667.563 533.253 667.786 533.939 667.786 534.845V548.434C667.786 549.247 667.61 549.909 667.258 550.42C666.906 550.954 666.436 551.314 665.85 551.5C665.263 551.686 664.606 551.686 663.878 551.5C663.151 551.314 662.423 550.931 661.696 550.35L646.454 538.329H648.285V549.479C648.285 550.362 648.062 551.035 647.616 551.5C647.17 551.988 646.513 552.232 645.645 552.232C644.777 552.232 644.108 551.988 643.638 551.5C643.193 551.035 642.97 550.362 642.97 549.479V535.332Z" fill="white"/>
<path d="M642.653 555.655C642.653 554.934 642.817 554.33 643.146 553.843C643.498 553.355 643.967 553.053 644.554 552.937C645.164 552.821 645.844 552.925 646.595 553.25L665.462 561.926C666.378 562.345 667.046 562.856 667.469 563.46C667.891 564.087 668.102 564.795 668.102 565.585C668.102 566.375 667.891 567.06 667.469 567.641C667.046 568.245 666.378 568.767 665.462 569.209L646.595 577.885C645.844 578.256 645.164 578.384 644.554 578.268C643.943 578.175 643.474 577.885 643.146 577.397C642.817 576.932 642.653 576.352 642.653 575.655C642.653 574.726 642.864 574.006 643.286 573.494C643.709 573.007 644.389 572.565 645.328 572.17L649.798 570.289L648.003 572.728V558.372L649.798 560.846L645.328 558.965C644.389 558.547 643.709 558.117 643.286 557.675C642.864 557.234 642.653 556.56 642.653 555.655ZM661.027 565.515L651.277 561.473L652.966 560.498V570.637L651.277 569.662L661.027 565.585V565.515Z" fill="white"/>
<path d="M642.582 592.872C642.582 590.154 643.11 587.819 644.166 585.868C645.222 583.917 646.713 582.419 648.637 581.373C650.561 580.351 652.814 579.84 655.395 579.84C657.319 579.84 659.068 580.131 660.64 580.711C662.212 581.315 663.562 582.175 664.688 583.29C665.814 584.428 666.671 585.798 667.258 587.401C667.868 589.027 668.173 590.851 668.173 592.872C668.173 593.94 668.044 595.044 667.786 596.182C667.551 597.343 667.187 598.365 666.694 599.248C666.342 599.898 665.897 600.351 665.357 600.607C664.817 600.862 664.266 600.944 663.702 600.851C663.139 600.781 662.635 600.584 662.189 600.259C661.743 599.933 661.438 599.515 661.274 599.004C661.133 598.493 661.215 597.936 661.52 597.332C661.849 596.635 662.095 595.938 662.259 595.241C662.447 594.567 662.541 593.859 662.541 593.116C662.541 591.675 662.259 590.467 661.696 589.492C661.156 588.539 660.358 587.819 659.302 587.332C658.246 586.844 656.944 586.6 655.395 586.6C653.846 586.6 652.532 586.844 651.453 587.332C650.397 587.819 649.587 588.539 649.024 589.492C648.484 590.467 648.214 591.675 648.214 593.116C648.214 593.72 648.285 594.37 648.426 595.067C648.59 595.764 648.836 596.449 649.165 597.123C649.47 597.819 649.552 598.435 649.411 598.969C649.27 599.527 648.989 599.968 648.566 600.293C648.144 600.642 647.651 600.862 647.088 600.955C646.548 601.048 646.009 600.967 645.469 600.711C644.929 600.479 644.495 600.061 644.166 599.457C643.674 598.644 643.286 597.634 643.005 596.426C642.723 595.241 642.582 594.056 642.582 592.872ZM636 592.035C636 591.571 636.035 591.083 636.106 590.572C636.153 590.061 636.235 589.585 636.352 589.143C636.493 588.679 636.727 588.354 637.056 588.168C637.361 588.005 637.69 587.959 638.042 588.028C638.394 588.098 638.663 588.284 638.851 588.586C639.039 588.888 639.062 589.26 638.922 589.701C638.828 590.026 638.769 590.316 638.746 590.572C638.699 590.851 638.675 591.118 638.675 591.373C638.675 591.977 638.734 592.407 638.851 592.663C638.969 592.941 639.156 593.081 639.414 593.081C639.626 593.081 639.79 592.988 639.907 592.802C640.001 592.616 640.048 592.291 640.048 591.826C640.048 591.687 640.048 591.536 640.048 591.373C640.025 591.234 639.989 591.083 639.942 590.92C639.919 590.781 639.919 590.642 639.942 590.502C639.966 590.386 640.036 590.27 640.154 590.154C640.271 590.061 640.412 589.991 640.576 589.945C640.717 589.922 640.905 589.922 641.139 589.945L643.674 590.293V593.255L640.963 592.837L641.562 591.408C641.679 591.664 641.761 591.931 641.808 592.21C641.855 592.512 641.878 592.779 641.878 593.011C641.878 594.103 641.644 594.951 641.174 595.555C640.705 596.159 640.048 596.461 639.203 596.461C638.218 596.461 637.443 596.042 636.88 595.206C636.293 594.393 636 593.336 636 592.035Z" fill="white"/>
<path d="M642.653 605.198C642.653 604.478 642.817 603.874 643.146 603.386C643.498 602.898 643.967 602.596 644.554 602.48C645.164 602.364 645.844 602.468 646.595 602.794L665.462 611.47C666.378 611.888 667.046 612.399 667.469 613.003C667.891 613.63 668.102 614.339 668.102 615.128C668.102 615.918 667.891 616.603 667.469 617.184C667.046 617.788 666.378 618.311 665.462 618.752L646.595 627.428C645.844 627.8 645.164 627.928 644.554 627.811C643.943 627.719 643.474 627.428 643.146 626.94C642.817 626.476 642.653 625.895 642.653 625.198C642.653 624.269 642.864 623.549 643.286 623.038C643.709 622.55 644.389 622.109 645.328 621.714L649.798 619.832L648.003 622.271V607.916L649.798 610.39L645.328 608.508C644.389 608.09 643.709 607.66 643.286 607.219C642.864 606.777 642.653 606.104 642.653 605.198ZM661.027 615.059L651.277 611.017L652.966 610.041V620.181L651.277 619.205L661.027 615.128V615.059ZM669.581 608.264C669.628 607.776 669.792 607.393 670.074 607.114C670.355 606.859 670.754 606.789 671.27 606.905C672.702 607.207 673.793 607.823 674.544 608.752C675.318 609.681 675.706 610.761 675.706 611.992C675.706 612.666 675.612 613.282 675.424 613.839C675.236 614.397 675.013 614.931 674.755 615.442C674.497 615.953 674.274 616.441 674.086 616.905C673.899 617.37 673.805 617.835 673.805 618.299C673.805 618.764 673.899 619.159 674.086 619.484C674.274 619.809 674.532 620.053 674.861 620.216C675.236 620.448 675.53 620.68 675.741 620.912C675.952 621.168 676.034 621.505 675.987 621.923C675.964 622.411 675.799 622.782 675.494 623.038C675.213 623.317 674.814 623.398 674.298 623.282C672.866 622.98 671.775 622.364 671.024 621.435C670.273 620.529 669.898 619.449 669.898 618.195C669.898 617.544 669.991 616.929 670.179 616.348C670.367 615.79 670.578 615.256 670.813 614.745C671.071 614.234 671.294 613.746 671.482 613.282C671.669 612.817 671.763 612.352 671.763 611.888C671.763 611.447 671.669 611.052 671.482 610.703C671.294 610.378 671.047 610.134 670.742 609.971C670.367 609.739 670.074 609.495 669.862 609.24C669.651 609.007 669.557 608.682 669.581 608.264Z" fill="white"/>
<path d="M642.582 641.858C642.582 639.372 643.11 637.188 644.166 635.307C645.246 633.425 646.748 631.962 648.672 630.917C650.596 629.895 652.837 629.384 655.395 629.384C657.319 629.384 659.068 629.674 660.64 630.255C662.212 630.859 663.562 631.706 664.688 632.798C665.814 633.913 666.671 635.237 667.258 636.77C667.868 638.303 668.173 639.999 668.173 641.858C668.173 644.343 667.645 646.515 666.589 648.373C665.533 650.255 664.043 651.718 662.118 652.764C660.218 653.809 657.977 654.332 655.395 654.332C653.471 654.332 651.723 654.03 650.15 653.426C648.578 652.845 647.217 651.997 646.067 650.882C644.941 649.79 644.073 648.478 643.462 646.945C642.876 645.412 642.582 643.716 642.582 641.858ZM648.003 641.858C648.003 643.089 648.297 644.134 648.883 644.993C649.47 645.853 650.315 646.515 651.418 646.98C652.521 647.444 653.846 647.676 655.395 647.676C657.718 647.676 659.525 647.165 660.816 646.143C662.107 645.121 662.752 643.693 662.752 641.858C662.752 640.65 662.459 639.604 661.872 638.722C661.309 637.862 660.476 637.2 659.373 636.736C658.293 636.271 656.967 636.039 655.395 636.039C653.072 636.039 651.253 636.55 649.939 637.572C648.649 638.594 648.003 640.022 648.003 641.858Z" fill="white"/>
<path d="M642.97 681.402C642.97 680.31 643.251 679.474 643.814 678.893C644.401 678.336 645.234 678.057 646.314 678.057H664.442C665.521 678.057 666.342 678.336 666.906 678.893C667.492 679.474 667.786 680.31 667.786 681.402V688.231C667.786 692.505 666.706 695.804 664.547 698.127C662.388 700.473 659.338 701.646 655.395 701.646C653.424 701.646 651.664 701.344 650.115 700.74C648.59 700.136 647.287 699.265 646.208 698.127C645.152 696.989 644.342 695.583 643.779 693.911C643.239 692.261 642.97 690.368 642.97 688.231V681.402ZM648.214 684.468V687.813C648.214 689.044 648.367 690.101 648.672 690.984C648.977 691.89 649.423 692.633 650.01 693.214C650.596 693.818 651.335 694.259 652.227 694.538C653.119 694.84 654.175 694.991 655.395 694.991C657.836 694.991 659.631 694.399 660.781 693.214C661.954 692.029 662.541 690.229 662.541 687.813V684.468H648.214Z" fill="white"/>
<path d="M642.97 708.794C642.97 707.702 643.251 706.866 643.814 706.285C644.401 705.727 645.234 705.449 646.314 705.449H664.442C665.521 705.449 666.342 705.727 666.906 706.285C667.492 706.866 667.786 707.702 667.786 708.794V720.606C667.786 721.442 667.574 722.069 667.152 722.487C666.73 722.905 666.119 723.114 665.322 723.114C664.5 723.114 663.867 722.905 663.421 722.487C662.998 722.069 662.787 721.442 662.787 720.606V711.581H658.07V719.839C658.07 720.652 657.859 721.268 657.437 721.686C657.014 722.127 656.393 722.348 655.571 722.348C654.75 722.348 654.128 722.127 653.706 721.686C653.283 721.268 653.072 720.652 653.072 719.839V711.581H647.968V720.606C647.968 721.442 647.745 722.069 647.299 722.487C646.877 722.905 646.267 723.114 645.469 723.114C644.647 723.114 644.026 722.905 643.603 722.487C643.181 722.069 642.97 721.442 642.97 720.606V708.794Z" fill="white"/>
<path d="M642.688 736.961C642.641 736.032 642.876 735.312 643.392 734.801C643.932 734.313 644.612 734.069 645.434 734.069C646.067 734.069 646.619 734.243 647.088 734.592C647.557 734.94 647.815 735.463 647.862 736.16L647.933 737.135C647.98 737.971 648.179 738.587 648.531 738.982C648.907 739.377 649.517 739.574 650.362 739.574H664.829C665.908 739.574 666.718 739.853 667.258 740.41C667.821 740.968 668.102 741.758 668.102 742.78C668.102 743.802 667.821 744.592 667.258 745.149C666.718 745.707 665.908 745.985 664.829 745.985H650.467C648.848 745.985 647.475 745.695 646.349 745.114C645.246 744.534 644.389 743.663 643.779 742.501C643.193 741.363 642.852 739.934 642.758 738.215L642.688 736.961Z" fill="white"/>
<path d="M642.582 762.245C642.582 759.76 643.11 757.576 644.166 755.695C645.246 753.813 646.748 752.35 648.672 751.304C650.596 750.282 652.837 749.771 655.395 749.771C657.319 749.771 659.068 750.062 660.64 750.642C662.212 751.246 663.562 752.094 664.688 753.186C665.814 754.301 666.671 755.625 667.258 757.158C667.868 758.691 668.173 760.387 668.173 762.245C668.173 764.731 667.645 766.903 666.589 768.761C665.533 770.643 664.043 772.106 662.118 773.151C660.218 774.197 657.977 774.719 655.395 774.719C653.471 774.719 651.723 774.417 650.15 773.813C648.578 773.233 647.217 772.385 646.067 771.27C644.941 770.178 644.073 768.866 643.462 767.332C642.876 765.799 642.582 764.104 642.582 762.245ZM648.003 762.245C648.003 763.476 648.297 764.522 648.883 765.381C649.47 766.241 650.315 766.903 651.418 767.367C652.521 767.832 653.846 768.064 655.395 768.064C657.718 768.064 659.525 767.553 660.816 766.531C662.107 765.509 662.752 764.08 662.752 762.245C662.752 761.037 662.459 759.992 661.872 759.109C661.309 758.25 660.476 757.588 659.373 757.123C658.293 756.659 656.967 756.426 655.395 756.426C653.072 756.426 651.253 756.937 649.939 757.959C648.649 758.982 648.003 760.41 648.003 762.245Z" fill="white"/>
<path d="M642.653 788.59C642.653 787.707 642.841 786.987 643.216 786.43C643.591 785.895 644.19 785.443 645.011 785.071L663.808 776.639C664.629 776.267 665.369 776.151 666.026 776.29C666.683 776.43 667.187 776.755 667.539 777.266C667.915 777.777 668.102 778.416 668.102 779.182C668.102 780.135 667.891 780.843 667.469 781.308C667.046 781.796 666.425 782.214 665.603 782.562L648.989 789.67V787.719L665.638 794.827C666.46 795.175 667.07 795.594 667.469 796.081C667.891 796.569 668.102 797.255 668.102 798.137C668.102 798.857 667.915 799.461 667.539 799.949C667.187 800.437 666.683 800.739 666.026 800.855C665.369 800.994 664.629 800.878 663.808 800.507L645.011 792.04C644.19 791.691 643.591 791.25 643.216 790.715C642.841 790.181 642.653 789.473 642.653 788.59Z" fill="white"/>
<path d="M642.97 807.064C642.97 805.972 643.251 805.136 643.814 804.555C644.401 803.997 645.234 803.719 646.314 803.719H664.442C665.521 803.719 666.342 803.997 666.906 804.555C667.492 805.136 667.786 805.972 667.786 807.064V818.876C667.786 819.712 667.574 820.339 667.152 820.757C666.73 821.175 666.119 821.384 665.322 821.384C664.5 821.384 663.867 821.175 663.421 820.757C662.998 820.339 662.787 819.712 662.787 818.876V809.851H658.07V818.109C658.07 818.922 657.859 819.538 657.437 819.956C657.014 820.397 656.393 820.618 655.571 820.618C654.75 820.618 654.128 820.397 653.706 819.956C653.283 819.538 653.072 818.922 653.072 818.109V809.851H647.968V818.876C647.968 819.712 647.745 820.339 647.299 820.757C646.877 821.175 646.267 821.384 645.469 821.384C644.647 821.384 644.026 821.175 643.603 820.757C643.181 820.339 642.97 819.712 642.97 818.876V807.064Z" fill="white"/>
<path d="M642.653 828.118C642.653 827.143 642.911 826.399 643.427 825.888C643.943 825.377 644.706 825.122 645.715 825.122H664.899C665.932 825.122 666.718 825.377 667.258 825.888C667.821 826.399 668.102 827.073 668.102 827.909C668.102 828.653 667.962 829.233 667.68 829.651C667.398 830.07 666.929 830.534 666.272 831.045L652.333 842.091V841.115H665.075C666.061 841.115 666.812 841.359 667.328 841.847C667.844 842.358 668.102 843.101 668.102 844.077C668.102 845.052 667.844 845.784 667.328 846.272C666.812 846.783 666.061 847.038 665.075 847.038H645.574C644.683 847.038 643.967 846.806 643.427 846.342C642.911 845.877 642.653 845.25 642.653 844.46C642.653 843.67 642.794 843.043 643.075 842.578C643.38 842.137 643.85 841.661 644.483 841.15L658.458 830.104V831.08H645.715C644.706 831.08 643.943 830.824 643.427 830.313C642.911 829.826 642.653 829.094 642.653 828.118Z" fill="white"/>
<path d="M642.582 860.656C642.582 859.727 642.653 858.751 642.794 857.729C642.911 856.73 643.099 855.778 643.357 854.872C643.615 853.966 643.92 853.153 644.272 852.433C644.577 851.805 644.976 851.364 645.469 851.109C645.985 850.853 646.525 850.76 647.088 850.83C647.651 850.9 648.144 851.097 648.566 851.422C649.012 851.747 649.306 852.177 649.446 852.711C649.611 853.246 649.54 853.85 649.235 854.523C648.813 855.406 648.484 856.405 648.25 857.52C648.015 858.635 647.898 859.68 647.898 860.656C647.898 862.189 648.097 863.257 648.496 863.861C648.918 864.489 649.435 864.802 650.045 864.802C650.585 864.802 651.019 864.581 651.347 864.14C651.676 863.722 651.957 862.967 652.192 861.875L653.072 857.799C653.541 855.569 654.363 853.908 655.536 852.816C656.709 851.724 658.223 851.178 660.077 851.178C661.297 851.178 662.4 851.422 663.386 851.91C664.395 852.421 665.251 853.13 665.955 854.035C666.659 854.965 667.199 856.056 667.574 857.311C667.973 858.588 668.173 860.005 668.173 861.562C668.173 862.77 668.032 863.989 667.75 865.22C667.492 866.475 667.093 867.555 666.554 868.461C666.272 868.995 665.885 869.378 665.392 869.611C664.899 869.843 664.383 869.936 663.843 869.889C663.327 869.843 662.869 869.657 662.47 869.332C662.071 869.03 661.802 868.612 661.661 868.077C661.543 867.566 661.637 866.951 661.942 866.231C662.247 865.557 662.47 864.791 662.611 863.931C662.775 863.095 662.858 862.282 662.858 861.492C662.858 860.633 662.752 859.901 662.541 859.297C662.353 858.693 662.071 858.228 661.696 857.903C661.321 857.601 660.886 857.45 660.394 857.45C659.901 857.45 659.478 857.648 659.126 858.042C658.798 858.461 658.516 859.216 658.282 860.307L657.402 864.349C656.909 866.602 656.099 868.287 654.973 869.402C653.846 870.517 652.38 871.074 650.573 871.074C649.353 871.074 648.25 870.83 647.264 870.342C646.278 869.854 645.434 869.158 644.73 868.252C644.049 867.346 643.521 866.254 643.146 864.976C642.77 863.699 642.582 862.259 642.582 860.656Z" fill="white"/>
<path d="M642.97 887.538C642.97 886.446 643.251 885.61 643.814 885.029C644.401 884.471 645.234 884.193 646.314 884.193H664.442C665.521 884.193 666.342 884.471 666.906 885.029C667.492 885.61 667.786 886.446 667.786 887.538V899.35C667.786 900.186 667.574 900.813 667.152 901.231C666.73 901.649 666.119 901.858 665.322 901.858C664.5 901.858 663.867 901.649 663.421 901.231C662.998 900.813 662.787 900.186 662.787 899.35V890.325H658.07V898.583C658.07 899.396 657.859 900.012 657.437 900.43C657.014 900.871 656.393 901.092 655.571 901.092C654.75 901.092 654.128 900.871 653.706 900.43C653.283 900.012 653.072 899.396 653.072 898.583V890.325H647.968V899.35C647.968 900.186 647.745 900.813 647.299 901.231C646.877 901.649 646.267 901.858 645.469 901.858C644.647 901.858 644.026 901.649 643.603 901.231C643.181 900.813 642.97 900.186 642.97 899.35V887.538Z" fill="white"/>
<path d="M642.653 916.715C642.653 915.995 642.817 915.391 643.146 914.904C643.498 914.416 643.967 914.114 644.554 913.998C645.164 913.881 645.844 913.986 646.595 914.311L665.462 922.987C666.378 923.405 667.046 923.916 667.469 924.52C667.891 925.148 668.102 925.856 668.102 926.646C668.102 927.436 667.891 928.121 667.469 928.702C667.046 929.306 666.378 929.828 665.462 930.27L646.595 938.946C645.844 939.317 645.164 939.445 644.554 939.329C643.943 939.236 643.474 938.946 643.146 938.458C642.817 937.993 642.653 937.413 642.653 936.716C642.653 935.786 642.864 935.066 643.286 934.555C643.709 934.068 644.389 933.626 645.328 933.231L649.798 931.35L648.003 933.789V919.433L649.798 921.907L645.328 920.026C644.389 919.607 643.709 919.178 643.286 918.736C642.864 918.295 642.653 917.621 642.653 916.715ZM661.027 926.576L651.277 922.534L652.966 921.559V931.698L651.277 930.723L661.027 926.646V926.576Z" fill="white"/>
<path d="M642.97 945.486C642.97 944.394 643.251 943.558 643.814 942.977C644.401 942.419 645.234 942.141 646.314 942.141H664.442C665.521 942.141 666.342 942.419 666.906 942.977C667.492 943.558 667.786 944.394 667.786 945.486V952.315C667.786 956.589 666.706 959.888 664.547 962.211C662.388 964.557 659.338 965.73 655.395 965.73C653.424 965.73 651.664 965.428 650.115 964.824C648.59 964.22 647.287 963.349 646.208 962.211C645.152 961.072 644.342 959.667 643.779 957.995C643.239 956.345 642.97 954.452 642.97 952.315V945.486ZM648.214 948.552V951.897C648.214 953.128 648.367 954.185 648.672 955.068C648.977 955.974 649.423 956.717 650.01 957.298C650.596 957.902 651.335 958.343 652.227 958.622C653.119 958.924 654.175 959.075 655.395 959.075C657.836 959.075 659.631 958.482 660.781 957.298C661.954 956.113 662.541 954.313 662.541 951.897V948.552H648.214Z" fill="white"/>
<path d="M642.582 980.404C642.582 978.615 642.805 977.035 643.251 975.665C643.721 974.294 644.413 973.133 645.328 972.181C646.243 971.251 647.381 970.543 648.742 970.055C650.127 969.591 651.723 969.358 653.53 969.358H664.829C665.908 969.358 666.718 969.637 667.258 970.194C667.821 970.752 668.102 971.542 668.102 972.564C668.102 973.609 667.821 974.399 667.258 974.933C666.718 975.491 665.908 975.769 664.829 975.769H653.459C651.652 975.769 650.291 976.164 649.376 976.954C648.461 977.744 648.003 978.894 648.003 980.404C648.003 981.89 648.461 983.029 649.376 983.818C650.291 984.608 651.652 985.003 653.459 985.003H664.829C665.908 985.003 666.718 985.27 667.258 985.804C667.821 986.362 668.102 987.152 668.102 988.174C668.102 989.196 667.821 989.974 667.258 990.508C666.718 991.043 665.908 991.31 664.829 991.31H653.53C651.113 991.31 649.083 990.892 647.44 990.055C645.821 989.242 644.601 988.023 643.779 986.397C642.981 984.771 642.582 982.773 642.582 980.404Z" fill="white"/>
<path d="M642.97 998.838C642.97 997.816 643.251 997.014 643.814 996.433C644.401 995.876 645.211 995.597 646.243 995.597H664.547C665.603 995.597 666.413 995.876 666.976 996.433C667.539 996.991 667.821 997.781 667.821 998.803C667.821 999.848 667.539 1000.64 666.976 1001.17C666.413 1001.73 665.603 1002.01 664.547 1002.01H648.355V1010.51C648.355 1011.39 648.121 1012.07 647.651 1012.53C647.205 1013.02 646.548 1013.26 645.68 1013.26C644.812 1013.26 644.143 1013.02 643.674 1012.53C643.204 1012.07 642.97 1011.39 642.97 1010.51V998.838Z" fill="white"/>
<path d="M642.653 1020.34C642.653 1019.32 642.934 1018.53 643.498 1017.97C644.084 1017.41 644.894 1017.14 645.926 1017.14H662.506V1011.67C662.506 1010.81 662.729 1010.14 663.174 1009.68C663.644 1009.24 664.301 1009.02 665.146 1009.02C666.014 1009.02 666.671 1009.24 667.117 1009.68C667.563 1010.14 667.786 1010.81 667.786 1011.67V1029.02C667.786 1029.88 667.563 1030.53 667.117 1030.97C666.671 1031.43 666.014 1031.67 665.146 1031.67C664.301 1031.67 663.644 1031.43 663.174 1030.97C662.729 1030.53 662.506 1029.88 662.506 1029.02V1023.55H645.926C644.894 1023.55 644.084 1023.28 643.498 1022.75C642.934 1022.21 642.653 1021.41 642.653 1020.34Z" fill="white"/>
<path d="M642.582 1044.19C642.582 1041.71 643.11 1039.52 644.166 1037.64C645.246 1035.76 646.748 1034.3 648.672 1033.25C650.596 1032.23 652.837 1031.72 655.395 1031.72C657.319 1031.72 659.068 1032.01 660.64 1032.59C662.212 1033.19 663.562 1034.04 664.688 1035.13C665.814 1036.25 666.671 1037.57 667.258 1039.11C667.868 1040.64 668.173 1042.33 668.173 1044.19C668.173 1046.68 667.645 1048.85 666.589 1050.71C665.533 1052.59 664.043 1054.05 662.118 1055.1C660.218 1056.14 657.977 1056.67 655.395 1056.67C653.471 1056.67 651.723 1056.37 650.15 1055.76C648.578 1055.18 647.217 1054.33 646.067 1053.22C644.941 1052.13 644.073 1050.81 643.462 1049.28C642.876 1047.75 642.582 1046.05 642.582 1044.19ZM648.003 1044.19C648.003 1045.42 648.297 1046.47 648.883 1047.33C649.47 1048.19 650.315 1048.85 651.418 1049.32C652.521 1049.78 653.846 1050.01 655.395 1050.01C657.718 1050.01 659.525 1049.5 660.816 1048.48C662.107 1047.46 662.752 1046.03 662.752 1044.19C662.752 1042.99 662.459 1041.94 661.872 1041.06C661.309 1040.2 660.476 1039.54 659.373 1039.07C658.293 1038.61 656.967 1038.37 655.395 1038.37C653.072 1038.37 651.253 1038.89 649.939 1039.91C648.649 1040.93 648.003 1042.36 648.003 1044.19Z" fill="white"/>
<path d="M642.582 1069.58C642.582 1068.65 642.653 1067.68 642.794 1066.65C642.911 1065.66 643.099 1064.7 643.357 1063.8C643.615 1062.89 643.92 1062.08 644.272 1061.36C644.577 1060.73 644.976 1060.29 645.469 1060.03C645.985 1059.78 646.525 1059.69 647.088 1059.76C647.651 1059.83 648.144 1060.02 648.566 1060.35C649.012 1060.67 649.306 1061.1 649.446 1061.64C649.611 1062.17 649.54 1062.78 649.235 1063.45C648.813 1064.33 648.484 1065.33 648.25 1066.45C648.015 1067.56 647.898 1068.61 647.898 1069.58C647.898 1071.11 648.097 1072.18 648.496 1072.79C648.918 1073.41 649.435 1073.73 650.045 1073.73C650.585 1073.73 651.019 1073.51 651.347 1073.07C651.676 1072.65 651.957 1071.89 652.192 1070.8L653.072 1066.72C653.541 1064.49 654.363 1062.83 655.536 1061.74C656.709 1060.65 658.223 1060.1 660.077 1060.1C661.297 1060.1 662.4 1060.35 663.386 1060.84C664.395 1061.35 665.251 1062.06 665.955 1062.96C666.659 1063.89 667.199 1064.98 667.574 1066.24C667.973 1067.51 668.173 1068.93 668.173 1070.49C668.173 1071.7 668.032 1072.92 667.75 1074.15C667.492 1075.4 667.093 1076.48 666.554 1077.39C666.272 1077.92 665.885 1078.3 665.392 1078.54C664.899 1078.77 664.383 1078.86 663.843 1078.82C663.327 1078.77 662.869 1078.58 662.47 1078.26C662.071 1077.96 661.802 1077.54 661.661 1077C661.543 1076.49 661.637 1075.88 661.942 1075.16C662.247 1074.48 662.47 1073.72 662.611 1072.86C662.775 1072.02 662.858 1071.21 662.858 1070.42C662.858 1069.56 662.752 1068.83 662.541 1068.22C662.353 1067.62 662.071 1067.15 661.696 1066.83C661.321 1066.53 660.886 1066.38 660.394 1066.38C659.901 1066.38 659.478 1066.57 659.126 1066.97C658.798 1067.39 658.516 1068.14 658.282 1069.23L657.402 1073.28C656.909 1075.53 656.099 1077.21 654.973 1078.33C653.846 1079.44 652.38 1080 650.573 1080C649.353 1080 648.25 1079.76 647.264 1079.27C646.278 1078.78 645.434 1078.08 644.73 1077.18C644.049 1076.27 643.521 1075.18 643.146 1073.9C642.77 1072.62 642.582 1071.18 642.582 1069.58Z" fill="white"/>
</svg>
