<svg width="38" height="1024" viewBox="0 0 38 1024" fill="none" xmlns="http://www.w3.org/2000/svg">
<path d="M6.32016 3.0394C6.32016 2.07032 6.58768 1.32148 7.12272 0.792888C7.68005 0.264296 8.44917 0 9.43008 0L27.0864 0C28.0896 0 28.8587 0.264296 29.3938 0.792888C29.9288 1.3435 30.1963 2.10335 30.1963 3.07244V11.1995C30.1963 13.8425 29.5052 15.8798 28.123 17.3114C26.7631 18.765 24.8794 19.4918 22.4717 19.4918C20.064 19.4918 18.1691 18.765 16.7869 17.3114C15.427 15.8798 14.747 13.8425 14.747 11.1995V6.0788H9.43008C8.44917 6.0788 7.68005 5.82552 7.12272 5.31895C6.58768 4.81239 6.32016 4.05254 6.32016 3.0394ZM19.4621 6.0788V10.1424C19.4621 11.2876 19.7073 12.1686 20.1978 12.7853C20.7105 13.402 21.4685 13.7103 22.4717 13.7103C23.4972 13.7103 24.2551 13.402 24.7456 12.7853C25.2361 12.1686 25.4813 11.2876 25.4813 10.1424V6.0788H19.4621Z" fill="white"/>
<path d="M6.62112 25.3982C6.62112 24.4291 6.88864 23.6693 7.42368 23.1187C7.98101 22.5901 8.75014 22.3258 9.73104 22.3258H27.1198C28.123 22.3258 28.8922 22.5901 29.4272 23.1187C29.9622 23.6473 30.2298 24.3961 30.2298 25.3652C30.2298 26.3563 29.9622 27.1051 29.4272 27.6117C28.8922 28.1403 28.123 28.4046 27.1198 28.4046H11.7374L11.7374 36.4656C11.7374 37.3025 11.5145 37.9412 11.0686 38.3817C10.6451 38.8443 10.0209 39.0755 9.196 39.0755C8.37115 39.0755 7.73579 38.8443 7.28992 38.3817C6.84405 37.9412 6.62112 37.3025 6.62112 36.4656L6.62112 25.3982Z" fill="white"/>
<path d="M6.32016 42.451C6.32016 41.7682 6.47622 41.1956 6.78832 40.733C7.12272 40.2705 7.56859 39.9842 8.12592 39.8741C8.70555 39.764 9.35205 39.8631 10.0654 40.1714L27.9893 48.3976C28.8587 48.7941 29.4941 49.2786 29.8954 49.8513C30.2966 50.4459 30.4973 51.1177 30.4973 51.8665C30.4973 52.6153 30.2966 53.2651 29.8954 53.8157C29.4941 54.3883 28.8587 54.8839 27.9893 55.3024L10.0654 63.5286C9.35205 63.881 8.70555 64.0021 8.12592 63.892C7.54629 63.8039 7.10043 63.5286 6.78832 63.0661C6.47622 62.6256 6.32016 62.0749 6.32016 61.4142C6.32016 60.5332 6.5208 59.8505 6.92208 59.3659C7.32336 58.9034 7.96987 58.4849 8.8616 58.1105L13.1085 56.3265L11.403 58.6391V45.0279L13.1085 47.3735L8.8616 45.5895C7.96987 45.193 7.32336 44.7856 6.92208 44.3671C6.5208 43.9486 6.32016 43.3099 6.32016 42.451ZM23.7758 51.8004L14.513 47.9681L16.1181 47.0431V56.6569L14.513 55.7318L23.7758 51.8665V51.8004Z" fill="white"/>
<path d="M6.32016 72.4682C6.32016 71.4991 6.58768 70.7503 7.12272 70.2217C7.68005 69.6931 8.44917 69.4288 9.43008 69.4288H25.1803V64.242C25.1803 63.427 25.3921 62.7993 25.8157 62.3589C26.2615 61.9404 26.8858 61.7311 27.6883 61.7311C28.5132 61.7311 29.1374 61.9404 29.561 62.3589C29.9845 62.7993 30.1963 63.427 30.1963 64.242L30.1963 80.6944C30.1963 81.5093 29.9845 82.126 29.561 82.5444C29.1374 82.9849 28.5132 83.2052 27.6883 83.2052C26.8858 83.2052 26.2615 82.9849 25.8157 82.5444C25.3921 82.126 25.1803 81.5093 25.1803 80.6944V75.5076H9.43008C8.44917 75.5076 7.68005 75.2543 7.12272 74.7477C6.58768 74.2411 6.32016 73.4813 6.32016 72.4682Z" fill="white"/>
<path d="M6.32016 83.6827C6.32016 82.9999 6.47622 82.4273 6.78832 81.9648C7.12272 81.5022 7.56859 81.2159 8.12592 81.1058C8.70555 80.9957 9.35205 81.0948 10.0654 81.4031L27.9893 89.6293C28.8587 90.0258 29.4941 90.5103 29.8954 91.083C30.2966 91.6776 30.4973 92.3494 30.4973 93.0982C30.4973 93.8471 30.2966 94.4968 29.8954 95.0474C29.4941 95.62 28.8587 96.1156 27.9893 96.5341L10.0654 104.76C9.35205 105.113 8.70555 105.234 8.12592 105.124C7.54629 105.036 7.10043 104.76 6.78832 104.298C6.47622 103.857 6.32016 103.307 6.32016 102.646C6.32016 101.765 6.5208 101.082 6.92208 100.598C7.32336 100.135 7.96987 99.7166 8.8616 99.3422L13.1085 97.5582L11.403 99.8708L11.403 86.2596L13.1085 88.6052L8.8616 86.8212C7.96987 86.4247 7.32336 86.0173 6.92208 85.5988C6.5208 85.1804 6.32016 84.5416 6.32016 83.6827ZM23.7758 93.0321L14.513 89.1998L16.1181 88.2748V97.8886L14.513 96.9635L23.7758 93.0982V93.0321Z" fill="white"/>
<path d="M6.32016 110.862C6.32016 109.893 6.58768 109.133 7.12272 108.582C7.68005 108.054 8.47147 107.79 9.49696 107.79H27.0195C28.045 107.79 28.8253 108.054 29.3603 108.582C29.9177 109.133 30.1963 109.926 30.1963 110.961V121.962C30.1963 122.755 29.9957 123.35 29.5944 123.746C29.1931 124.143 28.6135 124.341 27.8555 124.341C27.0753 124.341 26.4733 124.143 26.0498 123.746C25.6485 123.35 25.4478 122.755 25.4478 121.962V113.868H20.6994V121.236C20.6994 122.007 20.4987 122.59 20.0974 122.987C19.6962 123.405 19.1165 123.614 18.3586 123.614C17.5783 123.614 16.9875 123.405 16.5862 122.987C16.185 122.59 15.9843 122.007 15.9843 121.236V113.868H9.49696C7.37909 113.868 6.32016 112.866 6.32016 110.862Z" fill="white"/>
<path d="M6.25328 137.896C6.25328 135.539 6.75488 133.469 7.75808 131.685C8.78358 129.901 10.2103 128.513 12.0384 127.522C13.8665 126.553 15.9955 126.069 18.4254 126.069C20.2535 126.069 21.9143 126.344 23.408 126.895C24.9017 127.467 26.1835 128.271 27.2536 129.306C28.3237 130.363 29.1374 131.619 29.6947 133.072C30.2743 134.526 30.5642 136.134 30.5642 137.896C30.5642 140.252 30.0626 142.312 29.0594 144.074C28.0562 145.858 26.6405 147.245 24.8125 148.236C23.0067 149.228 20.8777 149.723 18.4254 149.723C16.5974 149.723 14.9365 149.437 13.4429 148.864C11.9492 148.314 10.6562 147.51 9.56384 146.452C8.49376 145.417 7.66891 144.173 7.08928 142.719C6.53195 141.266 6.25328 139.658 6.25328 137.896ZM11.403 137.896C11.403 139.063 11.6817 140.054 12.239 140.869C12.7964 141.684 13.5989 142.312 14.6467 142.752C15.6945 143.193 16.9541 143.413 18.4254 143.413C20.6325 143.413 22.3491 142.928 23.5752 141.959C24.8013 140.99 25.4144 139.636 25.4144 137.896C25.4144 136.751 25.1357 135.759 24.5784 134.923C24.0434 134.108 23.2519 133.48 22.2042 133.039C21.1787 132.599 19.9191 132.379 18.4254 132.379C16.2184 132.379 14.4907 132.863 13.2422 133.832C12.0161 134.801 11.403 136.156 11.403 137.896Z" fill="white"/>
<path d="M6.32016 156.352C6.32016 155.383 6.58768 154.634 7.12272 154.105C7.68005 153.577 8.44917 153.312 9.43008 153.312H27.0864C28.0896 153.312 28.8587 153.577 29.3938 154.105C29.9288 154.656 30.1963 155.416 30.1963 156.385V164.512C30.1963 167.155 29.5387 169.192 28.2234 170.624C26.9303 172.077 25.1246 172.804 22.8061 172.804C21.3124 172.804 20.0083 172.474 18.8936 171.813C17.8012 171.174 16.9541 170.238 16.3522 169.005C15.7725 167.793 15.4827 166.296 15.4827 164.512L16.0846 164.776V166.362C16.0846 167.309 15.8506 168.146 15.3824 168.873C14.9365 169.599 14.2454 170.205 13.3091 170.69L10.2995 172.342C9.65302 172.694 9.01765 172.859 8.39344 172.837C7.79152 172.815 7.28992 172.573 6.88864 172.11C6.50965 171.67 6.32016 171.02 6.32016 170.161C6.32016 169.302 6.49851 168.597 6.8552 168.047C7.21189 167.518 7.76923 167.045 8.5272 166.626L14.1117 163.62C14.6021 163.355 14.9365 163.014 15.1149 162.596C15.3155 162.199 15.4158 161.737 15.4158 161.208V159.391H9.43008C8.44917 159.391 7.68005 159.138 7.12272 158.631C6.58768 158.125 6.32016 157.365 6.32016 156.352ZM19.763 159.391V163.422C19.763 164.589 19.9971 165.481 20.4653 166.098C20.9334 166.714 21.658 167.023 22.6389 167.023C23.5752 167.023 24.2774 166.714 24.7456 166.098C25.2361 165.481 25.4813 164.589 25.4813 163.422L25.4813 159.391H19.763Z" fill="white"/>
<path d="M6.32016 179.446C6.32016 178.565 6.56539 177.883 7.05584 177.398C7.5463 176.935 8.23739 176.704 9.12912 176.704H27.6883C28.6023 176.704 29.2934 176.958 29.7616 177.464C30.2521 177.971 30.4973 178.686 30.4973 179.611C30.4973 180.382 30.3412 180.988 30.0291 181.429C29.7393 181.891 29.2489 182.31 28.5578 182.684L15.6499 189.787V188.631L28.5578 195.7C29.2489 196.097 29.7393 196.515 30.0291 196.956C30.3412 197.418 30.4973 198.035 30.4973 198.806C30.4973 199.687 30.2521 200.359 29.7616 200.821C29.2934 201.306 28.6023 201.548 27.6883 201.548H9.12912C8.23739 201.548 7.5463 201.317 7.05584 200.854C6.56539 200.392 6.32016 199.709 6.32016 198.806C6.32016 197.925 6.56539 197.242 7.05584 196.758C7.5463 196.295 8.23739 196.064 9.12912 196.064H20.6325V196.758L11.2693 191.439C10.7788 191.13 10.411 190.8 10.1658 190.448C9.92054 190.117 9.79792 189.666 9.79792 189.093C9.79792 188.542 9.92054 188.091 10.1658 187.739C10.411 187.386 10.7788 187.067 11.2693 186.781L20.6659 181.429V182.188H9.12912C8.23739 182.188 7.5463 181.957 7.05584 181.495C6.56539 181.032 6.32016 180.349 6.32016 179.446Z" fill="white"/>
<path d="M6.32016 206.926C6.32016 206.243 6.47622 205.671 6.78832 205.208C7.12272 204.746 7.56859 204.459 8.12592 204.349C8.70555 204.239 9.35205 204.338 10.0654 204.647L27.9893 212.873C28.8587 213.269 29.4941 213.754 29.8954 214.326C30.2966 214.921 30.4973 215.593 30.4973 216.342C30.4973 217.09 30.2966 217.74 29.8954 218.291C29.4941 218.863 28.8587 219.359 27.9893 219.777L10.0654 228.004C9.35205 228.356 8.70555 228.477 8.12592 228.367C7.54629 228.279 7.10043 228.004 6.78832 227.541C6.47622 227.101 6.32016 226.55 6.32016 225.889C6.32016 225.008 6.5208 224.326 6.92208 223.841C7.32336 223.379 7.96987 222.96 8.8616 222.586L13.1085 220.802L11.403 223.114V209.503L13.1085 211.849L8.8616 210.065C7.96987 209.668 7.32336 209.261 6.92208 208.842C6.5208 208.424 6.32016 207.785 6.32016 206.926ZM23.7758 216.276L14.513 212.443L16.1181 211.518V221.132L14.513 220.207L23.7758 216.342V216.276Z" fill="white"/>
<path d="M6.32016 243.525C6.32016 242.556 6.58768 241.807 7.12272 241.279C7.68005 240.75 8.44917 240.486 9.43008 240.486H27.0864C28.0896 240.486 28.8587 240.75 29.3938 241.279C29.9288 241.829 30.1963 242.589 30.1963 243.558V251.686C30.1963 254.328 29.5052 256.366 28.123 257.797C26.7631 259.251 24.8794 259.978 22.4717 259.978C20.064 259.978 18.1691 259.251 16.7869 257.797C15.427 256.366 14.747 254.328 14.747 251.686V246.565H9.43008C8.44917 246.565 7.68005 246.312 7.12272 245.805C6.58768 245.298 6.32016 244.539 6.32016 243.525ZM19.4621 246.565V250.628C19.4621 251.774 19.7073 252.655 20.1978 253.271C20.7105 253.888 21.4685 254.196 22.4717 254.196C23.4972 254.196 24.2551 253.888 24.7456 253.271C25.2361 252.655 25.4813 251.774 25.4813 250.628V246.565H19.4621Z" fill="white"/>
<path d="M6.32016 261.45C6.32016 260.767 6.47622 260.195 6.78832 259.732C7.12272 259.27 7.56859 258.983 8.12592 258.873C8.70555 258.763 9.35205 258.862 10.0654 259.17L27.9893 267.397C28.8587 267.793 29.4941 268.278 29.8954 268.85C30.2966 269.445 30.4973 270.117 30.4973 270.866C30.4973 271.614 30.2966 272.264 29.8954 272.815C29.4941 273.387 28.8587 273.883 27.9893 274.301L10.0654 282.528C9.35205 282.88 8.70555 283.001 8.12592 282.891C7.54629 282.803 7.10043 282.528 6.78832 282.065C6.47622 281.625 6.32016 281.074 6.32016 280.413C6.32016 279.532 6.5208 278.85 6.92208 278.365C7.32336 277.902 7.96987 277.484 8.8616 277.11L13.1085 275.326L11.403 277.638V264.027L13.1085 266.373L8.8616 264.589C7.96987 264.192 7.32336 263.785 6.92208 263.366C6.5208 262.948 6.32016 262.309 6.32016 261.45ZM23.7758 270.799L14.513 266.967L16.1181 266.042V275.656L14.513 274.731L23.7758 270.866V270.799Z" fill="white"/>
<path d="M6.32016 288.596C6.32016 287.627 6.58768 286.878 7.12272 286.35C7.68005 285.821 8.44917 285.557 9.43008 285.557H27.0864C28.0896 285.557 28.8587 285.821 29.3938 286.35C29.9288 286.9 30.1963 287.66 30.1963 288.629V296.756C30.1963 299.399 29.5387 301.437 28.2234 302.868C26.9303 304.322 25.1246 305.049 22.8061 305.049C21.3124 305.049 20.0083 304.718 18.8936 304.058C17.8012 303.419 16.9541 302.483 16.3522 301.25C15.7725 300.038 15.4827 298.54 15.4827 296.756L16.0846 297.021V298.607C16.0846 299.554 15.8506 300.391 15.3824 301.117C14.9365 301.844 14.2454 302.45 13.3091 302.934L10.2995 304.586C9.65302 304.939 9.01765 305.104 8.39344 305.082C7.79152 305.06 7.28992 304.818 6.88864 304.355C6.50965 303.915 6.32016 303.265 6.32016 302.406C6.32016 301.547 6.49851 300.842 6.8552 300.291C7.21189 299.763 7.76923 299.289 8.5272 298.871L14.1117 295.865C14.6021 295.6 14.9365 295.259 15.1149 294.84C15.3155 294.444 15.4158 293.981 15.4158 293.453V291.636H9.43008C8.44917 291.636 7.68005 291.382 7.12272 290.876C6.58768 290.369 6.32016 289.609 6.32016 288.596ZM19.763 291.636V295.666C19.763 296.834 19.9971 297.726 20.4653 298.342C20.9334 298.959 21.658 299.267 22.6389 299.267C23.5752 299.267 24.2774 298.959 24.7456 298.342C25.2361 297.726 25.4813 296.834 25.4813 295.666V291.636H19.763Z" fill="white"/>
<path d="M6.32016 309.521C6.32016 308.839 6.47622 308.266 6.78832 307.803C7.12272 307.341 7.56859 307.055 8.12592 306.945C8.70555 306.834 9.35205 306.934 10.0654 307.242L27.9893 315.468C28.8587 315.865 29.4941 316.349 29.8954 316.922C30.2966 317.516 30.4973 318.188 30.4973 318.937C30.4973 319.686 30.2966 320.336 29.8954 320.886C29.4941 321.459 28.8587 321.954 27.9893 322.373L10.0654 330.599C9.35205 330.951 8.70555 331.073 8.12592 330.962C7.54629 330.874 7.10043 330.599 6.78832 330.136C6.47622 329.696 6.32016 329.145 6.32016 328.485C6.32016 327.604 6.5208 326.921 6.92208 326.436C7.32336 325.974 7.96987 325.555 8.8616 325.181L13.1085 323.397L11.403 325.71L11.403 312.098L13.1085 314.444L8.8616 312.66C7.96987 312.263 7.32336 311.856 6.92208 311.438C6.5208 311.019 6.32016 310.38 6.32016 309.521ZM23.7758 318.871L14.513 315.039L16.1181 314.114L16.1181 323.727L14.513 322.802L23.7758 318.937V318.871Z" fill="white"/>
<path d="M6.32016 344.172C6.32016 343.489 6.47622 342.916 6.78832 342.454C7.12272 341.991 7.56859 341.705 8.12592 341.595C8.70555 341.485 9.35205 341.584 10.0654 341.892L27.9893 350.118C28.8587 350.515 29.4941 350.999 29.8954 351.572C30.2966 352.166 30.4973 352.838 30.4973 353.587C30.4973 354.336 30.2966 354.986 29.8954 355.536C29.4941 356.109 28.8587 356.604 27.9893 357.023L10.0654 365.249C9.35205 365.602 8.70555 365.723 8.12592 365.613C7.54629 365.524 7.10043 365.249 6.78832 364.787C6.47622 364.346 6.32016 363.796 6.32016 363.135C6.32016 362.254 6.5208 361.571 6.92208 361.086C7.32336 360.624 7.96987 360.205 8.8616 359.831L13.1085 358.047L11.403 360.36V346.748L13.1085 349.094L8.8616 347.31C7.96987 346.914 7.32336 346.506 6.92208 346.088C6.5208 345.669 6.32016 345.03 6.32016 344.172ZM23.7758 353.521L14.513 349.689L16.1181 348.764V358.377L14.513 357.452L23.7758 353.587V353.521Z" fill="white"/>
<path d="M6.62112 371.351C6.62112 370.382 6.88864 369.622 7.42368 369.071C7.98101 368.543 8.75014 368.278 9.73104 368.278H27.1198C28.123 368.278 28.8922 368.543 29.4272 369.071C29.9622 369.6 30.2298 370.349 30.2298 371.318C30.2298 372.309 29.9622 373.058 29.4272 373.564C28.8922 374.093 28.123 374.357 27.1198 374.357H11.7374L11.7374 382.418C11.7374 383.255 11.5145 383.894 11.0686 384.334C10.6451 384.797 10.0209 385.028 9.196 385.028C8.37115 385.028 7.73579 384.797 7.28992 384.334C6.84405 383.894 6.62112 383.255 6.62112 382.418L6.62112 371.351Z" fill="white"/>
<path d="M6.32016 390.676C6.32016 389.707 6.58768 388.947 7.12272 388.397C7.68005 387.868 8.47147 387.604 9.49696 387.604H27.0195C28.045 387.604 28.8253 387.868 29.3603 388.397C29.9177 388.947 30.1963 389.74 30.1963 390.775V401.777C30.1963 402.57 29.9957 403.164 29.5944 403.561C29.1931 403.957 28.6135 404.155 27.8555 404.155C27.0753 404.155 26.4733 403.957 26.0498 403.561C25.6485 403.164 25.4478 402.57 25.4478 401.777V393.683H20.6994V401.05C20.6994 401.821 20.4987 402.404 20.0974 402.801C19.6962 403.219 19.1165 403.428 18.3586 403.428C17.5783 403.428 16.9875 403.219 16.5862 402.801C16.185 402.404 15.9843 401.821 15.9843 401.05V393.683H9.49696C7.37909 393.683 6.32016 392.68 6.32016 390.676Z" fill="white"/>
<path d="M6.32016 406.116C6.32016 405.433 6.47622 404.86 6.78832 404.398C7.12272 403.935 7.56859 403.649 8.12592 403.539C8.70555 403.429 9.35205 403.528 10.0654 403.836L27.9893 412.062C28.8587 412.459 29.4941 412.944 29.8954 413.516C30.2966 414.111 30.4973 414.783 30.4973 415.531C30.4973 416.28 30.2966 416.93 29.8954 417.481C29.4941 418.053 28.8587 418.549 27.9893 418.967L10.0654 427.193C9.35205 427.546 8.70555 427.667 8.12592 427.557C7.54629 427.469 7.10043 427.193 6.78832 426.731C6.47622 426.29 6.32016 425.74 6.32016 425.079C6.32016 424.198 6.5208 423.515 6.92208 423.031C7.32336 422.568 7.96987 422.15 8.8616 421.775L13.1085 419.991L11.403 422.304V408.693L13.1085 411.038L8.8616 409.254C7.96987 408.858 7.32336 408.451 6.92208 408.032C6.5208 407.614 6.32016 406.975 6.32016 406.116ZM23.7758 415.465L14.513 411.633L16.1181 410.708V420.322L14.513 419.397L23.7758 415.531V415.465Z" fill="white"/>
<path d="M6.62112 433.394C6.62112 432.359 6.88864 431.566 7.42368 431.016C7.98101 430.487 8.77243 430.223 9.79792 430.223H27.0195C28.045 430.223 28.8253 430.487 29.3603 431.016C29.9177 431.566 30.1963 432.359 30.1963 433.394V441.455C30.1963 443.129 29.9399 444.55 29.4272 445.717C28.9367 446.906 28.2345 447.809 27.3205 448.426C26.4065 449.043 25.3364 449.351 24.1102 449.351C22.7281 449.351 21.5465 448.955 20.5656 448.162C19.5847 447.391 18.9159 446.334 18.5592 444.99H19.0942C18.8044 446.576 18.1579 447.798 17.1547 448.657C16.1515 449.538 14.8697 449.979 13.3091 449.979C11.2358 449.979 9.59728 449.241 8.39344 447.765C7.21189 446.312 6.62112 444.319 6.62112 441.786L6.62112 433.394ZM11.1355 436.037V440.96C11.1355 442.083 11.3473 442.898 11.7709 443.405C12.2167 443.933 12.8744 444.197 13.7438 444.197C14.6133 444.197 15.2598 443.933 15.6834 443.405C16.1069 442.898 16.3187 442.083 16.3187 440.96V436.037H11.1355ZM20.8331 436.037V440.365C20.8331 441.466 21.0338 442.27 21.435 442.777C21.8363 443.305 22.4494 443.57 23.2742 443.57C24.0991 443.57 24.701 443.305 25.08 442.777C25.4813 442.27 25.6819 441.466 25.6819 440.365V436.037H20.8331Z" fill="white"/>
<path d="M6.62112 456.591C6.62112 455.556 6.88864 454.763 7.42368 454.213C7.98101 453.684 8.77243 453.42 9.79792 453.42H27.0195C28.045 453.42 28.8253 453.684 29.3603 454.213C29.9177 454.763 30.1963 455.556 30.1963 456.591V467.791C30.1963 468.584 29.9957 469.178 29.5944 469.575C29.1931 469.971 28.6135 470.169 27.8555 470.169C27.0753 470.169 26.4733 469.971 26.0498 469.575C25.6485 469.178 25.4478 468.584 25.4478 467.791V459.234H20.9669V467.064C20.9669 467.835 20.7662 468.418 20.365 468.815C19.9637 469.233 19.3729 469.443 18.5926 469.443C17.8124 469.443 17.2216 469.233 16.8203 468.815C16.419 468.418 16.2184 467.835 16.2184 467.064V459.234H11.3696V467.791C11.3696 468.584 11.1578 469.178 10.7342 469.575C10.333 469.971 9.75333 470.169 8.99536 470.169C8.21509 470.169 7.62432 469.971 7.22304 469.575C6.82176 469.178 6.62112 468.584 6.62112 467.791V456.591Z" fill="white"/>
<path d="M6.32016 482.398C6.32016 481.429 6.58768 480.68 7.12272 480.151C7.68005 479.623 8.44917 479.358 9.43008 479.358H25.1803V474.172C25.1803 473.357 25.3921 472.729 25.8157 472.288C26.2615 471.87 26.8858 471.661 27.6883 471.661C28.5132 471.661 29.1374 471.87 29.561 472.288C29.9845 472.729 30.1963 473.357 30.1963 474.172V490.624C30.1963 491.439 29.9845 492.056 29.561 492.474C29.1374 492.915 28.5132 493.135 27.6883 493.135C26.8858 493.135 26.2615 492.915 25.8157 492.474C25.3921 492.056 25.1803 491.439 25.1803 490.624V485.437H9.43008C8.44917 485.437 7.68005 485.184 7.12272 484.677C6.58768 484.171 6.32016 483.411 6.32016 482.398Z" fill="white"/>
<path d="M6.32016 498.175C6.32016 497.206 6.58768 496.457 7.12272 495.928C7.68005 495.4 8.46032 495.135 9.46352 495.135H27.3539C28.3794 495.135 29.1597 495.4 29.6947 495.928C30.2298 496.457 30.4973 497.206 30.4973 498.175C30.4973 499.166 30.2298 499.915 29.6947 500.421C29.1597 500.95 28.3794 501.214 27.3539 501.214H9.46352C8.46032 501.214 7.68005 500.961 7.12272 500.454C6.58768 499.948 6.32016 499.188 6.32016 498.175Z" fill="white"/>
<path d="M6.62112 507.574C6.62112 506.804 6.78832 506.165 7.12272 505.658C7.45712 505.174 7.90299 504.843 8.46032 504.667C9.03995 504.491 9.66416 504.491 10.333 504.667C11.0241 504.843 11.7151 505.207 12.4062 505.757L26.8858 517.155H25.1469L25.1469 507.112C25.1469 506.253 25.3587 505.603 25.7822 505.163C26.2281 504.722 26.8635 504.502 27.6883 504.502C28.5132 504.502 29.1374 504.722 29.561 505.163C29.9845 505.603 30.1963 506.253 30.1963 507.112V519.996C30.1963 520.767 30.0291 521.395 29.6947 521.88C29.3603 522.386 28.9145 522.727 28.3571 522.904C27.7998 523.08 27.1756 523.08 26.4845 522.904C25.7934 522.727 25.1023 522.364 24.4112 521.813L9.93168 510.416H11.6706V520.988C11.6706 521.824 11.4588 522.463 11.0352 522.904C10.6116 523.366 9.98742 523.597 9.16256 523.597C8.33771 523.597 7.70235 523.366 7.25648 522.904C6.83291 522.463 6.62112 521.824 6.62112 520.988V507.574Z" fill="white"/>
<path d="M6.32016 526.843C6.32016 526.16 6.47622 525.587 6.78832 525.125C7.12272 524.662 7.56859 524.376 8.12592 524.266C8.70555 524.156 9.35205 524.255 10.0654 524.563L27.9893 532.789C28.8587 533.186 29.4941 533.67 29.8954 534.243C30.2966 534.838 30.4973 535.51 30.4973 536.258C30.4973 537.007 30.2966 537.657 29.8954 538.208C29.4941 538.78 28.8587 539.276 27.9893 539.694L10.0654 547.92C9.35205 548.273 8.70555 548.394 8.12592 548.284C7.54629 548.196 7.10043 547.92 6.78832 547.458C6.47622 547.017 6.32016 546.467 6.32016 545.806C6.32016 544.925 6.5208 544.242 6.92208 543.758C7.32336 543.295 7.96987 542.877 8.8616 542.502L13.1085 540.718L11.403 543.031V529.42L13.1085 531.765L8.8616 529.981C7.96987 529.585 7.32336 529.177 6.92208 528.759C6.5208 528.34 6.32016 527.702 6.32016 526.843ZM23.7758 536.192L14.513 532.36L16.1181 531.435V541.049L14.513 540.124L23.7758 536.258V536.192Z" fill="white"/>
<path d="M6.25328 562.13C6.25328 559.553 6.75488 557.34 7.75808 555.49C8.76128 553.64 10.1769 552.219 12.005 551.228C13.833 550.259 15.9732 549.774 18.4254 549.774C20.2535 549.774 21.9143 550.05 23.408 550.6C24.9017 551.173 26.1835 551.988 27.2536 553.045C28.3237 554.124 29.1374 555.424 29.6947 556.943C30.2743 558.485 30.5642 560.214 30.5642 562.13C30.5642 563.143 30.4415 564.189 30.1963 565.269C29.9734 566.37 29.6278 567.339 29.1597 568.176C28.8253 568.793 28.4017 569.222 27.889 569.464C27.3762 569.707 26.8523 569.784 26.3173 569.696C25.7822 569.63 25.3029 569.442 24.8794 569.134C24.4558 568.826 24.166 568.429 24.0099 567.945C23.8762 567.46 23.9542 566.932 24.244 566.359C24.5561 565.698 24.7902 565.037 24.9462 564.377C25.1246 563.738 25.2138 563.066 25.2138 562.361C25.2138 560.996 24.9462 559.851 24.4112 558.926C23.8985 558.023 23.1405 557.34 22.1373 556.877C21.1341 556.415 19.8968 556.183 18.4254 556.183C16.9541 556.183 15.7057 556.415 14.6802 556.877C13.677 557.34 12.9078 558.023 12.3728 558.926C11.8601 559.851 11.6037 560.996 11.6037 562.361C11.6037 562.934 11.6706 563.551 11.8043 564.211C11.9604 564.872 12.1945 565.522 12.5066 566.161C12.7964 566.821 12.8744 567.405 12.7406 567.912C12.6069 568.44 12.3394 568.859 11.9381 569.167C11.5368 569.497 11.0686 569.707 10.5336 569.795C10.0209 569.883 9.50811 569.806 8.99536 569.563C8.48261 569.343 8.07019 568.947 7.75808 568.374C7.28992 567.603 6.92208 566.645 6.65456 565.5C6.38704 564.377 6.25328 563.253 6.25328 562.13ZM0 561.337C0 560.897 0.0334435 560.434 0.100323 559.95C0.144909 559.465 0.222935 559.014 0.3344 558.595C0.468163 558.155 0.691093 557.846 1.0032 557.67C1.29301 557.516 1.60512 557.472 1.93952 557.538C2.27392 557.604 2.53029 557.78 2.70864 558.067C2.88699 558.353 2.90928 558.705 2.77552 559.124C2.68635 559.432 2.63062 559.707 2.60832 559.95C2.56374 560.214 2.54144 560.467 2.54144 560.71C2.54144 561.282 2.59718 561.69 2.70864 561.932C2.82011 562.196 2.99846 562.328 3.24368 562.328C3.44432 562.328 3.60038 562.24 3.71184 562.064C3.80101 561.888 3.8456 561.58 3.8456 561.139C3.8456 561.007 3.8456 560.864 3.8456 560.71C3.82331 560.577 3.78987 560.434 3.74528 560.28C3.72299 560.148 3.72299 560.016 3.74528 559.884C3.76757 559.774 3.83445 559.663 3.94592 559.553C4.05739 559.465 4.19115 559.399 4.3472 559.355C4.48096 559.333 4.65931 559.333 4.88224 559.355L7.28992 559.685V562.494L4.71504 562.097L5.28352 560.743C5.39499 560.985 5.47301 561.238 5.5176 561.502C5.56219 561.789 5.58448 562.042 5.58448 562.262C5.58448 563.297 5.36155 564.101 4.91568 564.674C4.46981 565.247 3.8456 565.533 3.04304 565.533C2.10672 565.533 1.37104 565.137 0.835999 564.344C0.278667 563.573 0 562.571 0 561.337Z" fill="white"/>
<path d="M6.32016 573.817C6.32016 573.135 6.47622 572.562 6.78832 572.099C7.12272 571.637 7.56859 571.351 8.12592 571.24C8.70555 571.13 9.35205 571.229 10.0654 571.538L27.9893 579.764C28.8587 580.16 29.4941 580.645 29.8954 581.218C30.2966 581.812 30.4973 582.484 30.4973 583.233C30.4973 583.982 30.2966 584.631 29.8954 585.182C29.4941 585.755 28.8587 586.25 27.9893 586.669L10.0654 594.895C9.35205 595.247 8.70555 595.368 8.12592 595.258C7.54629 595.17 7.10043 594.895 6.78832 594.432C6.47622 593.992 6.32016 593.441 6.32016 592.781C6.32016 591.9 6.5208 591.217 6.92208 590.732C7.32336 590.27 7.96987 589.851 8.8616 589.477L13.1085 587.693L11.403 590.005V576.394L13.1085 578.74L8.8616 576.956C7.96987 576.559 7.32336 576.152 6.92208 575.733C6.5208 575.315 6.32016 574.676 6.32016 573.817ZM23.7758 583.167L14.513 579.334L16.1181 578.409V588.023L14.513 587.098L23.7758 583.233V583.167ZM31.9018 576.725C31.9463 576.262 32.1024 575.899 32.3699 575.634C32.6374 575.392 33.0164 575.326 33.5069 575.436C34.8668 575.722 35.9034 576.306 36.6168 577.187C37.3525 578.068 37.7203 579.092 37.7203 580.259C37.7203 580.898 37.6311 581.482 37.4528 582.01C37.2745 582.539 37.0627 583.046 36.8174 583.53C36.5722 584.015 36.3604 584.477 36.1821 584.918C36.0037 585.358 35.9146 585.799 35.9146 586.239C35.9146 586.68 36.0037 587.054 36.1821 587.362C36.3604 587.671 36.6057 587.902 36.9178 588.056C37.2745 588.276 37.5531 588.497 37.7538 588.717C37.9544 588.959 38.0324 589.279 37.9878 589.675C37.9655 590.138 37.8095 590.49 37.5197 590.732C37.2522 590.996 36.8732 591.074 36.3827 590.963C35.0228 590.677 33.9862 590.094 33.2728 589.213C32.5594 588.354 32.2027 587.329 32.2027 586.14C32.2027 585.523 32.2919 584.94 32.4702 584.389C32.6486 583.86 32.8492 583.354 33.0722 582.869C33.3174 582.385 33.5292 581.922 33.7075 581.482C33.8859 581.041 33.975 580.601 33.975 580.16C33.975 579.742 33.8859 579.367 33.7075 579.037C33.5292 578.729 33.2951 578.497 33.0053 578.343C32.6486 578.123 32.3699 577.892 32.1693 577.65C31.9686 577.429 31.8795 577.121 31.9018 576.725Z" fill="white"/>
<path d="M6.25328 608.576C6.25328 606.219 6.75488 604.149 7.75808 602.365C8.78358 600.581 10.2103 599.193 12.0384 598.202C13.8665 597.233 15.9955 596.749 18.4254 596.749C20.2535 596.749 21.9143 597.024 23.408 597.575C24.9017 598.147 26.1835 598.951 27.2536 599.986C28.3237 601.044 29.1374 602.299 29.6947 603.753C30.2743 605.206 30.5642 606.814 30.5642 608.576C30.5642 610.933 30.0626 612.992 29.0594 614.754C28.0562 616.538 26.6405 617.925 24.8125 618.917C23.0067 619.908 20.8777 620.403 18.4254 620.403C16.5974 620.403 14.9365 620.117 13.4429 619.544C11.9492 618.994 10.6562 618.19 9.56384 617.133C8.49376 616.097 7.66891 614.853 7.08928 613.399C6.53195 611.946 6.25328 610.338 6.25328 608.576ZM11.403 608.576C11.403 609.743 11.6817 610.734 12.239 611.549C12.7964 612.364 13.5989 612.992 14.6467 613.432C15.6945 613.873 16.9541 614.093 18.4254 614.093C20.6325 614.093 22.3491 613.609 23.5752 612.64C24.8013 611.671 25.4144 610.316 25.4144 608.576C25.4144 607.431 25.1357 606.44 24.5784 605.603C24.0434 604.788 23.2519 604.16 22.2042 603.72C21.1787 603.279 19.9191 603.059 18.4254 603.059C16.2184 603.059 14.4907 603.543 13.2422 604.512C12.0161 605.482 11.403 606.836 11.403 608.576Z" fill="white"/>
<path d="M6.62112 646.07C6.62112 645.035 6.88864 644.242 7.42368 643.691C7.98101 643.163 8.77243 642.898 9.79792 642.898H27.0195C28.045 642.898 28.8253 643.163 29.3603 643.691C29.9177 644.242 30.1963 645.035 30.1963 646.07V652.545C30.1963 656.598 29.1708 659.725 27.1198 661.928C25.0689 664.152 22.1707 665.264 18.4254 665.264C16.5528 665.264 14.8808 664.978 13.4094 664.405C11.9604 663.833 10.7231 663.007 9.6976 661.928C8.6944 660.848 7.92528 659.516 7.39024 657.93C6.87749 656.366 6.62112 654.571 6.62112 652.545V646.07ZM11.6037 648.977V652.149C11.6037 653.316 11.7486 654.318 12.0384 655.155C12.3282 656.014 12.7518 656.719 13.3091 657.269C13.8665 657.842 14.5687 658.261 15.4158 658.525C16.263 658.811 17.2662 658.954 18.4254 658.954C20.7439 658.954 22.4494 658.393 23.5418 657.269C24.6564 656.146 25.2138 654.439 25.2138 652.149V648.977H11.6037Z" fill="white"/>
<path d="M6.62112 672.041C6.62112 671.006 6.88864 670.213 7.42368 669.663C7.98101 669.134 8.77243 668.87 9.79792 668.87H27.0195C28.045 668.87 28.8253 669.134 29.3603 669.663C29.9177 670.213 30.1963 671.006 30.1963 672.041V683.241C30.1963 684.034 29.9957 684.628 29.5944 685.025C29.1931 685.421 28.6135 685.62 27.8555 685.62C27.0753 685.62 26.4733 685.421 26.0498 685.025C25.6485 684.628 25.4478 684.034 25.4478 683.241V674.684H20.9669V682.514C20.9669 683.285 20.7662 683.869 20.365 684.265C19.9637 684.684 19.3729 684.893 18.5926 684.893C17.8124 684.893 17.2216 684.684 16.8203 684.265C16.419 683.869 16.2184 683.285 16.2184 682.514V674.684H11.3696V683.241C11.3696 684.034 11.1578 684.628 10.7342 685.025C10.333 685.421 9.75333 685.62 8.99536 685.62C8.21509 685.62 7.62432 685.421 7.22304 685.025C6.82176 684.628 6.62112 684.034 6.62112 683.241V672.041Z" fill="white"/>
<path d="M6.3536 698.748C6.30902 697.867 6.53195 697.184 7.0224 696.7C7.53515 696.237 8.18165 696.006 8.96192 696.006C9.56384 696.006 10.0877 696.171 10.5336 696.502C10.9795 696.832 11.2247 697.328 11.2693 697.988L11.3362 698.913C11.3807 699.706 11.5702 700.29 11.9046 700.664C12.2613 701.039 12.841 701.226 13.6435 701.226H27.3874C28.4129 701.226 29.182 701.49 29.6947 702.019C30.2298 702.547 30.4973 703.296 30.4973 704.265C30.4973 705.234 30.2298 705.983 29.6947 706.512C29.182 707.04 28.4129 707.305 27.3874 707.305H13.7438C12.2056 707.305 10.9014 707.029 9.83136 706.479C8.78358 705.928 7.96987 705.102 7.39024 704.001C6.83291 702.922 6.50965 701.567 6.42048 699.937L6.3536 698.748Z" fill="white"/>
<path d="M6.25328 722.721C6.25328 720.365 6.75488 718.294 7.75808 716.51C8.78358 714.726 10.2103 713.339 12.0384 712.348C13.8665 711.379 15.9955 710.894 18.4254 710.894C20.2535 710.894 21.9143 711.169 23.408 711.72C24.9017 712.293 26.1835 713.097 27.2536 714.132C28.3237 715.189 29.1374 716.444 29.6947 717.898C30.2743 719.352 30.5642 720.959 30.5642 722.721C30.5642 725.078 30.0626 727.137 29.0594 728.899C28.0562 730.683 26.6405 732.071 24.8125 733.062C23.0067 734.053 20.8777 734.549 18.4254 734.549C16.5974 734.549 14.9365 734.262 13.4429 733.69C11.9492 733.139 10.6562 732.335 9.56384 731.278C8.49376 730.243 7.66891 728.998 7.08928 727.545C6.53195 726.091 6.25328 724.483 6.25328 722.721ZM11.403 722.721C11.403 723.889 11.6817 724.88 12.239 725.695C12.7964 726.51 13.5989 727.137 14.6467 727.578C15.6945 728.018 16.9541 728.239 18.4254 728.239C20.6325 728.239 22.3491 727.754 23.5752 726.785C24.8013 725.816 25.4144 724.461 25.4144 722.721C25.4144 721.576 25.1357 720.585 24.5784 719.748C24.0434 718.933 23.2519 718.305 22.2042 717.865C21.1787 717.424 19.9191 717.204 18.4254 717.204C16.2184 717.204 14.4907 717.689 13.2422 718.658C12.0161 719.627 11.403 720.981 11.403 722.721Z" fill="white"/>
<path d="M6.32016 747.7C6.32016 746.863 6.49851 746.18 6.8552 745.652C7.21189 745.145 7.78037 744.716 8.56064 744.363L26.4176 736.368C27.1979 736.016 27.9001 735.906 28.5243 736.038C29.1485 736.17 29.6278 736.479 29.9622 736.963C30.3189 737.448 30.4973 738.053 30.4973 738.78C30.4973 739.683 30.2966 740.355 29.8954 740.795C29.4941 741.258 28.9033 741.654 28.123 741.985L12.3394 748.724V746.874L28.1565 753.614C28.9367 753.944 29.5164 754.341 29.8954 754.803C30.2966 755.266 30.4973 755.915 30.4973 756.752C30.4973 757.435 30.3189 758.008 29.9622 758.47C29.6278 758.933 29.1485 759.219 28.5243 759.329C27.9001 759.461 27.1979 759.351 26.4176 758.999L8.56064 750.971C7.78037 750.641 7.21189 750.222 6.8552 749.715C6.49851 749.209 6.32016 748.537 6.32016 747.7Z" fill="white"/>
<path d="M6.62112 765.216C6.62112 764.181 6.88864 763.388 7.42368 762.837C7.98101 762.309 8.77243 762.044 9.79792 762.044H27.0195C28.045 762.044 28.8253 762.309 29.3603 762.837C29.9177 763.388 30.1963 764.181 30.1963 765.216L30.1963 776.416C30.1963 777.208 29.9957 777.803 29.5944 778.2C29.1931 778.596 28.6135 778.794 27.8555 778.794C27.0753 778.794 26.4733 778.596 26.0498 778.2C25.6485 777.803 25.4478 777.208 25.4478 776.416L25.4478 767.859H20.9669V775.689C20.9669 776.46 20.7662 777.043 20.365 777.44C19.9637 777.858 19.3729 778.067 18.5926 778.067C17.8124 778.067 17.2216 777.858 16.8203 777.44C16.419 777.043 16.2184 776.46 16.2184 775.689V767.859H11.3696V776.416C11.3696 777.208 11.1578 777.803 10.7342 778.2C10.333 778.596 9.75333 778.794 8.99536 778.794C8.21509 778.794 7.62432 778.596 7.22304 778.2C6.82176 777.803 6.62112 777.208 6.62112 776.416V765.216Z" fill="white"/>
<path d="M6.32016 785.179C6.32016 784.254 6.56539 783.549 7.05584 783.064C7.5463 782.58 8.27083 782.338 9.22944 782.338H27.4542C28.4351 782.338 29.182 782.58 29.6947 783.064C30.2298 783.549 30.4973 784.188 30.4973 784.981C30.4973 785.685 30.3635 786.236 30.096 786.632C29.8285 787.029 29.3826 787.469 28.7584 787.954L15.5162 798.427V797.502H27.6214C28.5578 797.502 29.2711 797.733 29.7616 798.195C30.2521 798.68 30.4973 799.385 30.4973 800.31C30.4973 801.235 30.2521 801.929 29.7616 802.391C29.2711 802.876 28.5578 803.118 27.6214 803.118H9.09568C8.24853 803.118 7.56859 802.898 7.05584 802.457C6.56539 802.017 6.32016 801.422 6.32016 800.673C6.32016 799.924 6.45392 799.33 6.72144 798.889C7.01125 798.471 7.45712 798.019 8.05904 797.535L21.3347 787.062V787.987H9.22944C8.27083 787.987 7.5463 787.745 7.05584 787.26C6.56539 786.798 6.32016 786.104 6.32016 785.179Z" fill="white"/>
<path d="M6.25328 816.029C6.25328 815.148 6.32016 814.223 6.45392 813.254C6.56539 812.307 6.74373 811.404 6.98896 810.545C7.23419 809.686 7.524 808.915 7.8584 808.232C8.14821 807.638 8.5272 807.219 8.99536 806.977C9.48582 806.735 9.99856 806.647 10.5336 806.713C11.0686 806.779 11.5368 806.966 11.9381 807.274C12.3617 807.583 12.6403 807.99 12.7741 808.497C12.9301 809.003 12.8633 809.576 12.5734 810.215C12.1722 811.052 11.8601 811.999 11.6371 813.056C11.4142 814.113 11.3027 815.104 11.3027 816.029C11.3027 817.483 11.4922 818.496 11.8712 819.069C12.2725 819.663 12.7629 819.961 13.3426 819.961C13.8553 819.961 14.2677 819.751 14.5798 819.333C14.8919 818.936 15.1595 818.221 15.3824 817.185L16.2184 813.32C16.6643 811.206 17.4445 809.631 18.5592 808.596C19.6739 807.561 21.1118 807.043 22.873 807.043C24.0322 807.043 25.08 807.274 26.0163 807.737C26.9749 808.221 27.7886 808.893 28.4574 809.752C29.1262 810.633 29.639 811.668 29.9957 812.858C30.3747 814.069 30.5642 815.412 30.5642 816.888C30.5642 818.033 30.4304 819.19 30.1629 820.357C29.9177 821.546 29.5387 822.57 29.0259 823.429C28.7584 823.936 28.3906 824.299 27.9224 824.52C27.4542 824.74 26.9638 824.828 26.451 824.784C25.9606 824.74 25.5259 824.564 25.1469 824.255C24.7679 823.969 24.5115 823.573 24.3778 823.066C24.2663 822.581 24.3555 821.998 24.6453 821.315C24.9351 820.676 25.1469 819.95 25.2806 819.135C25.4367 818.342 25.5147 817.571 25.5147 816.822C25.5147 816.007 25.4144 815.313 25.2138 814.741C25.0354 814.168 24.7679 813.728 24.4112 813.419C24.0545 813.133 23.6421 812.99 23.1739 812.99C22.7058 812.99 22.3045 813.177 21.9701 813.551C21.658 813.948 21.3905 814.664 21.1675 815.699L20.3315 819.531C19.8634 821.667 19.0942 823.264 18.0242 824.321C16.9541 825.379 15.5607 825.907 13.8442 825.907C12.6849 825.907 11.6371 825.676 10.7008 825.213C9.76448 824.751 8.96192 824.09 8.29312 823.231C7.64661 822.372 7.14502 821.337 6.78832 820.126C6.43163 818.914 6.25328 817.549 6.25328 816.029Z" fill="white"/>
<path d="M6.62112 841.517C6.62112 840.482 6.88864 839.689 7.42368 839.139C7.98101 838.61 8.77243 838.346 9.79792 838.346H27.0195C28.045 838.346 28.8253 838.61 29.3603 839.139C29.9177 839.689 30.1963 840.482 30.1963 841.517L30.1963 852.717C30.1963 853.51 29.9957 854.104 29.5944 854.501C29.1931 854.897 28.6135 855.095 27.8555 855.095C27.0753 855.095 26.4733 854.897 26.0498 854.501C25.6485 854.104 25.4478 853.51 25.4478 852.717V844.16H20.9669V851.99C20.9669 852.761 20.7662 853.344 20.365 853.741C19.9637 854.159 19.3729 854.369 18.5926 854.369C17.8124 854.369 17.2216 854.159 16.8203 853.741C16.419 853.344 16.2184 852.761 16.2184 851.99V844.16H11.3696V852.717C11.3696 853.51 11.1578 854.104 10.7342 854.501C10.333 854.897 9.75333 855.095 8.99536 855.095C8.21509 855.095 7.62432 854.897 7.22304 854.501C6.82176 854.104 6.62112 853.51 6.62112 852.717V841.517Z" fill="white"/>
<path d="M6.32016 869.182C6.32016 868.499 6.47622 867.927 6.78832 867.464C7.12272 867.002 7.56859 866.715 8.12592 866.605C8.70555 866.495 9.35205 866.594 10.0654 866.902L27.9893 875.129C28.8587 875.525 29.4941 876.01 29.8954 876.582C30.2966 877.177 30.4973 877.849 30.4973 878.598C30.4973 879.346 30.2966 879.996 29.8954 880.547C29.4941 881.119 28.8587 881.615 27.9893 882.033L10.0654 890.26C9.35205 890.612 8.70555 890.733 8.12592 890.623C7.54629 890.535 7.10043 890.26 6.78832 889.797C6.47622 889.357 6.32016 888.806 6.32016 888.145C6.32016 887.264 6.5208 886.581 6.92208 886.097C7.32336 885.634 7.96987 885.216 8.8616 884.841L13.1085 883.058L11.403 885.37V871.759L13.1085 874.104L8.8616 872.321C7.96987 871.924 7.32336 871.517 6.92208 871.098C6.5208 870.68 6.32016 870.041 6.32016 869.182ZM23.7758 878.531L14.513 874.699L16.1181 873.774V883.388L14.513 882.463L23.7758 878.598V878.531Z" fill="white"/>
<path d="M6.62112 896.461C6.62112 895.425 6.88864 894.632 7.42368 894.082C7.98101 893.553 8.77243 893.289 9.79792 893.289H27.0195C28.045 893.289 28.8253 893.553 29.3603 894.082C29.9177 894.632 30.1963 895.425 30.1963 896.461V902.936C30.1963 906.988 29.1708 910.116 27.1198 912.318C25.0689 914.543 22.1707 915.655 18.4254 915.655C16.5528 915.655 14.8808 915.369 13.4094 914.796C11.9604 914.223 10.7231 913.397 9.6976 912.318C8.6944 911.239 7.92528 909.907 7.39024 908.321C6.87749 906.757 6.62112 904.962 6.62112 902.936L6.62112 896.461ZM11.6037 899.368V902.539C11.6037 903.707 11.7486 904.709 12.0384 905.546C12.3282 906.405 12.7518 907.109 13.3091 907.66C13.8665 908.233 14.5687 908.651 15.4158 908.915C16.263 909.202 17.2662 909.345 18.4254 909.345C20.7439 909.345 22.4494 908.783 23.5418 907.66C24.6564 906.537 25.2138 904.83 25.2138 902.539V899.368H11.6037Z" fill="white"/>
<path d="M6.25328 929.568C6.25328 927.872 6.46507 926.374 6.88864 925.075C7.33451 923.775 7.99216 922.674 8.8616 921.771C9.73104 920.89 10.8123 920.219 12.1053 919.756C13.4206 919.315 14.9365 919.095 16.6531 919.095H27.3874C28.4129 919.095 29.182 919.359 29.6947 919.888C30.2298 920.417 30.4973 921.166 30.4973 922.135C30.4973 923.126 30.2298 923.875 29.6947 924.381C29.182 924.91 28.4129 925.174 27.3874 925.174H16.5862C14.8697 925.174 13.5766 925.548 12.7072 926.297C11.8378 927.046 11.403 928.136 11.403 929.568C11.403 930.978 11.8378 932.057 12.7072 932.806C13.5766 933.554 14.8697 933.929 16.5862 933.929H27.3874C28.4129 933.929 29.182 934.182 29.6947 934.689C30.2298 935.217 30.4973 935.966 30.4973 936.935C30.4973 937.904 30.2298 938.642 29.6947 939.149C29.182 939.655 28.4129 939.909 27.3874 939.909H16.6531C14.3569 939.909 12.4285 939.512 10.868 938.719C9.32976 937.948 8.17051 936.792 7.39024 935.25C6.63227 933.709 6.25328 931.814 6.25328 929.568Z" fill="white"/>
<path d="M6.62112 947.046C6.62112 946.077 6.88864 945.317 7.42368 944.766C7.98101 944.238 8.75014 943.974 9.73104 943.974H27.1198C28.123 943.974 28.8922 944.238 29.4272 944.766C29.9622 945.295 30.2298 946.044 30.2298 947.013C30.2298 948.004 29.9622 948.753 29.4272 949.259C28.8922 949.788 28.123 950.052 27.1198 950.052H11.7374L11.7374 958.113C11.7374 958.95 11.5145 959.589 11.0686 960.03C10.6451 960.492 10.0209 960.723 9.196 960.723C8.37115 960.723 7.73579 960.492 7.28992 960.03C6.84405 959.589 6.62112 958.95 6.62112 958.113L6.62112 947.046Z" fill="white"/>
<path d="M6.32016 967.435C6.32016 966.466 6.58768 965.717 7.12272 965.188C7.68005 964.66 8.44917 964.395 9.43008 964.395H25.1803V959.209C25.1803 958.394 25.3921 957.766 25.8157 957.325C26.2615 956.907 26.8858 956.698 27.6883 956.698C28.5132 956.698 29.1374 956.907 29.561 957.325C29.9845 957.766 30.1963 958.394 30.1963 959.209L30.1963 975.661C30.1963 976.476 29.9845 977.093 29.561 977.511C29.1374 977.951 28.5132 978.172 27.6883 978.172C26.8858 978.172 26.2615 977.951 25.8157 977.511C25.3921 977.093 25.1803 976.476 25.1803 975.661L25.1803 970.474H9.43008C8.44917 970.474 7.68005 970.221 7.12272 969.714C6.58768 969.208 6.32016 968.448 6.32016 967.435Z" fill="white"/>
<path d="M6.25328 990.05C6.25328 987.693 6.75488 985.623 7.75808 983.839C8.78358 982.055 10.2103 980.667 12.0384 979.676C13.8665 978.707 15.9955 978.223 18.4254 978.223C20.2535 978.223 21.9143 978.498 23.408 979.049C24.9017 979.621 26.1835 980.425 27.2536 981.46C28.3237 982.517 29.1374 983.773 29.6947 985.226C30.2743 986.68 30.5642 988.288 30.5642 990.05C30.5642 992.407 30.0626 994.466 29.0594 996.228C28.0562 998.012 26.6405 999.399 24.8125 1000.39C23.0067 1001.38 20.8777 1001.88 18.4254 1001.88C16.5974 1001.88 14.9365 1001.59 13.4429 1001.02C11.9492 1000.47 10.6562 999.664 9.56384 998.606C8.49376 997.571 7.66891 996.327 7.08928 994.873C6.53195 993.42 6.25328 991.812 6.25328 990.05ZM11.403 990.05C11.403 991.217 11.6817 992.208 12.239 993.023C12.7964 993.838 13.5989 994.466 14.6467 994.906C15.6945 995.347 16.9541 995.567 18.4254 995.567C20.6325 995.567 22.3491 995.082 23.5752 994.113C24.8013 993.144 25.4144 991.79 25.4144 990.05C25.4144 988.905 25.1357 987.914 24.5784 987.077C24.0434 986.262 23.2519 985.634 22.2042 985.193C21.1787 984.753 19.9191 984.533 18.4254 984.533C16.2184 984.533 14.4907 985.017 13.2422 985.986C12.0161 986.955 11.403 988.31 11.403 990.05Z" fill="white"/>
<path d="M6.25328 1014.12C6.25328 1013.24 6.32016 1012.32 6.45392 1011.35C6.56539 1010.4 6.74373 1009.5 6.98896 1008.64C7.23419 1007.78 7.524 1007.01 7.8584 1006.33C8.14821 1005.73 8.5272 1005.31 8.99536 1005.07C9.48582 1004.83 9.99856 1004.74 10.5336 1004.81C11.0686 1004.87 11.5368 1005.06 11.9381 1005.37C12.3617 1005.68 12.6403 1006.08 12.7741 1006.59C12.9301 1007.1 12.8633 1007.67 12.5734 1008.31C12.1722 1009.14 11.8601 1010.09 11.6371 1011.15C11.4142 1012.21 11.3027 1013.2 11.3027 1014.12C11.3027 1015.58 11.4922 1016.59 11.8712 1017.16C12.2725 1017.76 12.7629 1018.05 13.3426 1018.05C13.8553 1018.05 14.2677 1017.84 14.5798 1017.43C14.8919 1017.03 15.1595 1016.31 15.3824 1015.28L16.2184 1011.41C16.6643 1009.3 17.4445 1007.72 18.5592 1006.69C19.6739 1005.65 21.1118 1005.14 22.873 1005.14C24.0322 1005.14 25.08 1005.37 26.0163 1005.83C26.9749 1006.31 27.7886 1006.99 28.4574 1007.84C29.1262 1008.73 29.639 1009.76 29.9957 1010.95C30.3747 1012.16 30.5642 1013.51 30.5642 1014.98C30.5642 1016.13 30.4304 1017.28 30.1629 1018.45C29.9177 1019.64 29.5387 1020.66 29.0259 1021.52C28.7584 1022.03 28.3906 1022.39 27.9224 1022.61C27.4542 1022.83 26.9638 1022.92 26.451 1022.88C25.9606 1022.83 25.5259 1022.66 25.1469 1022.35C24.7679 1022.06 24.5115 1021.67 24.3778 1021.16C24.2663 1020.67 24.3555 1020.09 24.6453 1019.41C24.9351 1018.77 25.1469 1018.04 25.2806 1017.23C25.4367 1016.43 25.5147 1015.66 25.5147 1014.91C25.5147 1014.1 25.4144 1013.41 25.2138 1012.83C25.0354 1012.26 24.7679 1011.82 24.4112 1011.51C24.0545 1011.23 23.6421 1011.08 23.1739 1011.08C22.7058 1011.08 22.3045 1011.27 21.9701 1011.64C21.658 1012.04 21.3905 1012.76 21.1675 1013.79L20.3315 1017.62C19.8634 1019.76 19.0942 1021.36 18.0242 1022.41C16.9541 1023.47 15.5607 1024 13.8442 1024C12.6849 1024 11.6371 1023.77 10.7008 1023.31C9.76448 1022.84 8.96192 1022.18 8.29312 1021.32C7.64661 1020.47 7.14502 1019.43 6.78832 1018.22C6.43163 1017.01 6.25328 1015.64 6.25328 1014.12Z" fill="white"/>
</svg>
